<svg id="Ebene_1" data-name="Ebene 1" xmlns="http://www.w3.org/2000/svg" viewBox="0 0 880.4 665.2"><defs><style>.cls-1{fill:none;}.cls-2{fill:#1d1d1b;}.cls-3{fill:#fff;}</style></defs><title>404-desktop-build-2</title><path class="cls-1" d="M1293,721.9c-25.4-58.9-65.6-109.4-122.1-142.8-5.8-3.4-11.6-7-18-9.4-21.4-8.2-46.6-3-63.8,11.7a57.6,57.6,0,0,0-10,10.9l-2-1.7c-15-14.6-37.5-12.6-55.5-2-10.8,6.4-26.6,29.2-32,37.4-10.8,16.7-18.2,34.9-25.9,53.2a259.5,259.5,0,0,0-10.5,29.1c-1.9,6.8-3.7,13.4-5.1,20.3-1.8,8.5-3.8,17-5.6,25.4a145.3,145.3,0,0,0-2.5,19.7c-1,13.1-1.9,42.9-1.9,42.9,2.7-5,10.8-11,18.2-13.3s15.2-2.7,22.9-2.9a91.6,91.6,0,0,1,14.8.5c9.1,1.4,17.5,5.5,25.7,9.6,22.5,11.1,45.2,22.6,69.7,27.8,19.7,4.3,41,3.3,60.5-1.9s42.7-19.1,53.1-30.6c13.1-14.6,15.3-21.4,27.6-32.1,19.2-16.7,37.6-22.9,58.6-19.5,4.2.7,13.6,5.1,13.6,5.1C1302.8,740.9,1298.2,733.7,1293,721.9Zm-13.5,17.9c-100.5-18-205.2.2-300.7,36.3-8.5,3.2-16.9,6.6-25.6,9l.6-1.2c3.2-49,23-98.8,62-128.6,35.8-27.3,83.3-34.8,128.4-32.7,30.2,1.3,54.3,6.3,78.1,24.9,11.4,8.9,27.7,29.4,32.1,35.3,16.9,22.7,27.8,48.6,30.4,57.5C1284.8,740.3,1281.1,740.1,1279.5,739.8Z" transform="translate(-485.9 -180.8)"/><path class="cls-2" d="M955.6,783.9c2.3-31.6,11-63.2,28-90.2s44.1-48.3,75.5-58.9,65.4-12.5,98.1-9.5c15.7,1.5,31.3,4.8,45.5,11.9s24.2,16.1,34.1,27.2c19.7,22,37.5,47.9,46.2,76.4l1.8-2.4c-9.3-.5-18.6-2.7-27.9-3.9-11.2-1.4-22.5-2.4-33.7-3a509.8,509.8,0,0,0-67.7,1.2c-44.2,3.7-87.8,12.7-130.2,25.6-12.4,3.7-24.6,7.8-36.7,12.2s-23.6,9.3-35.9,12.8c-2.3.6-1.3,4.2,1,3.6,21.3-6,41.8-15.2,62.9-22s43-12.7,65-17.4c44-9.4,89.2-14.2,134.3-12.5,12.2.4,24.3,1.3,36.4,2.7s21.7,3.9,32.5,4.4a1.8,1.8,0,0,0,1.8-2.3c-7.9-25.8-23.2-49.7-40.4-70.3-9.4-11.2-19.2-21.8-31.6-29.8s-28.7-13.9-44.5-16.5c-33-5.4-68.8-4-101.2,4.7s-60.8,26.4-81.1,53.2c-22.3,29.5-33.3,66.3-35.9,102.8-.2,2.4,3.6,2.4,3.7,0Z" transform="translate(-485.9 -180.8)"/><path class="cls-2" d="M1080.6,587c-16-14.9-38.7-14.3-57.5-4.9-15.6,7.8-26.5,24.5-36,38.7-13.9,20.7-23.7,44.6-32.6,67.9a278.8,278.8,0,0,0-11.6,40.4c-2.7,12.4-6,24.7-7.3,37.4-1.6,16.6-2,33.4-2.5,50.1-.2,5.1,6.8,6.7,9.3,2.6,7.4-12.3,24-13.4,36.8-13.8,7-.2,13.8-.1,20.6,2s15,6.2,22.3,9.8c25.9,12.9,52.7,25.7,81.9,28.3a132.8,132.8,0,0,0,79.1-18.1,101.8,101.8,0,0,0,27-22.3c7-8.2,12.8-17.3,20.6-24.8,10.5-10,23.2-18.4,37.6-21.1,11.3-2.1,21.7-.4,31.9,4.4,3.4,1.6,7.6-.2,7.6-4.3-.2-21.1-9.7-39.8-19-58.3a329.5,329.5,0,0,0-36.3-57,290,290,0,0,0-48-47.9,285.5,285.5,0,0,0-28.3-19.6c-10.7-6.5-21.4-12.8-33.9-14.8a70.3,70.3,0,0,0-67.5,28.1l7.8-1-2-1.8c-4.8-4.1-11.9,2.9-7,7.1l2,1.7c2.6,2.3,5.8,1.7,7.8-1,12.6-17.3,35.1-26.5,56.2-23.4,11.9,1.7,22.1,7.9,32.2,14.1a264.8,264.8,0,0,1,26.2,18.1c32.8,25.8,59.1,58.8,78.6,95.5,5.2,9.8,9.7,19.9,14.2,30a71.8,71.8,0,0,1,7,30.2l7.5-4.3c-8.9-4.2-17.4-6.7-27.4-6.7a69.7,69.7,0,0,0-35.2,10.3,102,102,0,0,0-28.4,25.2c-7.4,9.5-14.4,19.3-24,26.8a123.1,123.1,0,0,1-80.8,25.3c-31.6-1.4-60.3-16.4-88.1-30.2-7.7-3.8-15.7-7.7-24.3-9.3s-16.7-1.2-25.1-.7c-14.3.9-30.3,5.2-38.2,18.4l9.3,2.5c.4-12.6.8-25.3,1.6-38,1.4-22.6,6.6-45.3,12.8-67.1,3.5-12.4,8.2-24.2,13.2-36.1s9.8-23.1,15.7-34.1c8.1-15,18.3-30.1,30.4-42.2,14.4-14.6,40.8-19.9,56.8-5C1078.3,598.5,1085.4,591.4,1080.6,587Z" transform="translate(-485.9 -180.8)"/><path class="cls-2" d="M1113.4,637.6a93.4,93.4,0,0,0-4.4,11c-.5,1.5,1.9,2.2,2.4.7,1.2-3.6,2.6-7,4.1-10.4.7-1.5-1.4-2.7-2.1-1.3Z" transform="translate(-485.9 -180.8)"/><path class="cls-2" d="M1156.9,640.7a14.8,14.8,0,0,1,4.1,6.6c.5,1.6,2.9.9,2.4-.6a19.1,19.1,0,0,0-4.7-7.7c-1.1-1.2-2.9.6-1.8,1.7Z" transform="translate(-485.9 -180.8)"/><path class="cls-2" d="M1110.8,649.8c15.3-6.5,38.1-14.2,50,2.7.9,1.3,3,.1,2.1-1.2-12.8-18.2-36.6-10.8-53.4-3.6-1.5.6-.2,2.8,1.3,2.1Z" transform="translate(-485.9 -180.8)"/><path class="cls-3" d="M1147.2,682.6c.5,7.7.8,13.9,1,17.8a29.3,29.3,0,0,1-6.7,19.7c-4.6,5.5-11.9,8.9-18.9,7.7s-12.3-6.1-15.4-12.1-4.6-13.2-5.4-19.3c-.5-4.4-1.5-9.7-1.2-10.7a7.2,7.2,0,0,1,2.4-2.7c4.8-2.7,5.9-2.9,11.3-4.1s17.3-1.1,19.8-1.1a73.2,73.2,0,0,1,11.2,1.1C1146,679.1,1147,679.9,1147.2,682.6Z" transform="translate(-485.9 -180.8)"/><path class="cls-2" d="M1146,682.6c.8,13.8,3.6,29.8-8.6,39.7-6.5,5.2-15.2,6-22.1,1.1s-9.1-12.1-10.8-19.3a78.5,78.5,0,0,1-1.6-9.5c-.4-2.3-1.8-6.2-1.1-8.4,1.7-4.6,11.1-6,15.3-6.5a113.2,113.2,0,0,1,14.3-.6c4.1-.1,13.9-1,14.6,3.9.2,1.6,2.6.9,2.4-.7-.7-4.9-3.7-4.9-8-5.4a120.2,120.2,0,0,0-14.7-.2,61.6,61.6,0,0,0-16,2c-3.4.9-9,2.8-10.2,6.6-.5,1.4,0,3.3.2,4.9.5,3.5.9,7,1.5,10.5,1.2,6.7,3.2,13.9,7.3,19.4,7.5,10,20.6,12.1,30.4,4.2,13-10.4,10.5-27,9.6-41.7C1148.3,681,1145.8,681,1146,682.6Z" transform="translate(-485.9 -180.8)"/><path class="cls-3" d="M1147.8,685.2a110.2,110.2,0,0,0,1,17.4,42.1,42.1,0,0,0,1.2,4.8,31.8,31.8,0,0,0,4.3,7.3,39,39,0,0,0,3.3,3.8,22,22,0,0,0,16.4,5.9,37.8,37.8,0,0,0,8.5-2.3,43.7,43.7,0,0,0,8.1-5.6,24.7,24.7,0,0,0,4.4-6.3,26.9,26.9,0,0,0,2.1-10c0-4.8-.3-9.6-.4-14.4a5,5,0,0,0-.5-2.1c-.5-.9-3.2-1.8-4.3-2.2-2.6-.8-12.1-3.1-15.6-3.3s-16.3-.7-21.1-.2C1153.1,678.3,1148,681.9,1147.8,685.2Z" transform="translate(-485.9 -180.8)"/><path class="cls-2" d="M1146.6,685.2c-.6,12.4.7,25.1,10.1,34.2s20.8,7.8,30,1.6c12.4-8.3,11.9-20.6,11.3-34.3-.3-4.7-2.9-5.6-7.2-6.8a77.7,77.7,0,0,0-15.1-3,131.1,131.1,0,0,0-18.8-.2c-4.6.3-9.3,3.5-10.3,8.2-.3,1.5,2.1,2.2,2.4.6,1.5-7.4,10.3-6.5,15.9-6.4a105.4,105.4,0,0,1,13.8.7c4.4.6,10.7,1.2,14.5,3.6s2.4,7.7,2.6,11.4.2,8.3-1,12.3c-3.9,12.5-20,19.9-31.8,13.8s-14.5-22.8-13.9-35.7C1149.2,683.6,1146.7,683.6,1146.6,685.2Z" transform="translate(-485.9 -180.8)"/><path class="cls-3" d="M1054.8,691.3a11.2,11.2,0,0,0-4.4,2.7c-2.2,2.5-2.2,6.2-1.6,9.5a59.3,59.3,0,0,0,1.9,8.1,48.2,48.2,0,0,0,3.6,10.5,27.1,27.1,0,0,0,19.7,13.7,29.7,29.7,0,0,0,23.1-6.7,16.4,16.4,0,0,0,3.8-4.1,18.3,18.3,0,0,0,1.4-3.2,32.5,32.5,0,0,0,1.4-6.9,29.2,29.2,0,0,0-.2-6.6c-.2-2.1-3.3-15.8-4.6-21.3a5.4,5.4,0,0,0-5.2-4.4,81.7,81.7,0,0,0-16.9,2.2C1070.7,686.4,1063,688.3,1054.8,691.3Z" transform="translate(-485.9 -180.8)"/><path class="cls-2" d="M1054.5,690.1c-5.1,2.1-7.6,5.6-7.3,11.3a60.1,60.1,0,0,0,5.4,19.9c5.2,11.4,17.9,17.6,30.2,15.6s23.1-12,22.2-26.2c-.3-4.5-1.5-8.9-2.4-13.3s-1.2-9.9-3.6-13.3c-3.8-5.1-13.3-2.3-18.5-1.4a179.4,179.4,0,0,0-26,7.4c-1.5.6-.9,3,.6,2.4,6.8-2.4,13.7-4.3,20.7-6.1,5.1-1.3,19.4-5.8,21.9.9,1.6,4.2,2.2,9.3,3.1,13.7s2.2,10,1.5,15.3c-1.2,7.7-5.3,12.6-12.3,15.9a27.4,27.4,0,0,1-23.7-.2c-6.7-3.4-10.8-9.1-13.1-16.2s-7.3-19.5,1.9-23.3C1056.6,691.9,1056,689.5,1054.5,690.1Z" transform="translate(-485.9 -180.8)"/><path class="cls-3" d="M1005.1,714.9c.8,3.3,3.7,12,6.2,18.8s11.6,13,19.8,13.1,16.3-7,19.1-15.2a29.1,29.1,0,0,0,1.6-11.7c-.2-2.9-3.6-16.1-4.8-21.1-.4-1.5-4.8-2.6-6.3-2.6s-7.5,1.4-13.5,3.4-13.7,4.6-16.7,5.8A8.3,8.3,0,0,0,1005.1,714.9Z" transform="translate(-485.9 -180.8)"/><path class="cls-2" d="M1003.9,715.2c2.8,10.9,5.8,24.4,16.5,30s21.5,2.4,27.9-7.1,4.6-20.5,1.9-31.4c-.8-3.4-.9-8.5-4.3-10.4s-8-1.1-12.1,0a159.5,159.5,0,0,0-23.6,7.9c-4.6,2-7.1,5.9-6.3,11,.3,1.6,2.7.9,2.4-.7-1.3-8.1,10-9.9,15.7-11.8s11.7-4.7,17.6-5.2c2.8-.2,5.6.5,6.6,3.3s1.1,4.4,1.6,6.6c1,4,2.3,8,2.7,12.1,1.6,14-10,30-25.2,25.1-12.7-4.1-16-18.5-19-30.1C1006,713,1003.5,713.6,1003.9,715.2Z" transform="translate(-485.9 -180.8)"/><path class="cls-3" d="M1198,704.3c1.9,9.5,9.2,17.9,18.6,19.9s20-2.6,24.6-11.1c2.1-3.7,3-8,3.6-12.3s.8-7.4-1.1-10.5-6.9-5-10.9-5.9c-8.5-2-13.5-2.9-22.3-2.8-3.5,0-8.2.6-10.3,3.5C1197,689.6,1197.8,703.2,1198,704.3Z" transform="translate(-485.9 -180.8)"/><path class="cls-2" d="M1196.8,704.7c2.3,10.2,10.1,19.3,20.8,20.9s21-3.9,25.4-13.3,6.5-22.7-4.4-27.4c-5.8-2.5-12.7-3.6-19-4.2s-12.1-1.3-17.1,1.1c-7.3,3.4-6.6,16.2-5.7,22.9.2,1.6,2.6.9,2.4-.7a45.9,45.9,0,0,1,0-9.8c.5-6.4,2.3-10.7,9.5-11.3a66.3,66.3,0,0,1,17.2,1.3c6,1.1,16,2.2,17.8,9.2s-.9,14.7-3.9,19.7a22.4,22.4,0,0,1-14,9.8c-12.8,2.8-23.9-6.8-26.6-18.9C1198.9,702.4,1196.5,703.1,1196.8,704.7Z" transform="translate(-485.9 -180.8)"/><path class="cls-3" d="M1275.7,719.3c-2.1,3.1-9,5.8-14.2,4.7-7.2-1.4-13.5-7.1-14.4-14.4-.4-2.5-2.2-16-.6-19.4a3.8,3.8,0,0,1,2-2.1,3.3,3.3,0,0,1,2.2,0c3,.4,7.6-.1,9.3,2.5S1276.6,718,1275.7,719.3Z" transform="translate(-485.9 -180.8)"/><path class="cls-2" d="M1274.8,718.4c-8.6,10.6-24.9,1.8-26.6-9.8-.5-3.3-.8-6.7-1-10.1a32.5,32.5,0,0,1,0-5.4c.3-3.4,2.3-3.9,5.3-3.6,4.7.5,6.4,1.6,8.6,5.3s3.5,5.8,5.2,8.8,3.5,6,5.1,9.1c.6,1.1,3.4,5.1,3.1,6.2s2,2.3,2.4.7-2-5.7-2.9-7.4c-2.6-4.9-5.4-9.7-8.2-14.4-1.6-2.8-3.2-6.8-5.7-9s-10.6-3.3-13.3-1.1-2.2,9.5-1.9,13.2.4,9.3,2.2,13.3c4.6,10.7,21.3,16,29.5,6C1277.6,718.9,1275.8,717.1,1274.8,718.4Z" transform="translate(-485.9 -180.8)"/><path class="cls-3" d="M1009.5,729.2a30.8,30.8,0,0,1,.3,20.1,22.4,22.4,0,0,1-3.7,7.4,23.5,23.5,0,0,1-10.2,6.6c-4,1.5-8.5,2.3-12.6,1.1s-6.4-3.5-9.2-5.9a42.7,42.7,0,0,1-7-7.1,29.1,29.1,0,0,1-4.3-11,14.9,14.9,0,0,1-.5-3.6c.1-5.1,3.7-9.5,7.6-12.9a45.5,45.5,0,0,1,11.5-7.2,91,91,0,0,1,9.9-3.7,22.9,22.9,0,0,1,6.8-1.4c2.3.1,5,.9,5.9,3S1008.3,725.7,1009.5,729.2Z" transform="translate(-485.9 -180.8)"/><path class="cls-2" d="M1008.3,729.5c4.6,13.4.1,28.7-14.2,33.1-7.7,2.4-13.3-.1-19.1-5s-9.1-9.1-10.7-15.8c-3.4-14.8,13.3-22.9,24.9-26.7,3-1.1,6.6-2.6,9.9-2.1s4.1,2.7,5.1,5.3,2.7,7.5,4.1,11.2c.6,1.5,3,.9,2.5-.7-1.8-4.7-3.1-10.5-5.7-14.8s-10.8-3.3-15.8-1.6c-13.1,4.3-31.4,13.4-27.4,30,3.4,13.8,18.2,27.2,32.8,22.6,6.6-2,12.3-5.8,15.2-12.2a33.7,33.7,0,0,0,.9-24C1010.2,727.3,1007.8,728,1008.3,729.5Z" transform="translate(-485.9 -180.8)"/><path class="cls-3" d="M1068.3,640.6c.7-2.9,1.7-6,4-8.1s2.8-2.9,4.5-3.6a45.7,45.7,0,0,1,11.4-3,15.8,15.8,0,0,1,10.9,2.8,19,19,0,0,1,5.9,7.5,47.2,47.2,0,0,1,4.2,30,98.2,98.2,0,0,1-43.6,5.8S1065.8,650.4,1068.3,640.6Z" transform="translate(-485.9 -180.8)"/><path class="cls-2" d="M1069.5,640.9c1.5-5.5,4.5-9.6,10-11.7s10.1-2.9,14.8-1.4c9.7,3,13.3,15.7,14.2,24.8.4,3.3,1.3,10.7-1.4,13s-5.2,1.7-7.1,2.2l-5.4,1.3a97.5,97.5,0,0,1-29,1.6l1.2,1.3c.2-10.3.4-21,2.7-31.1a1.2,1.2,0,0,0-2.4-.6c-2.4,10.2-2.6,21.2-2.8,31.7a1.2,1.2,0,0,0,1.3,1.2,102.6,102.6,0,0,0,43.9-5.8,1.2,1.2,0,0,0,.9-.9c2.2-12.4.5-32.7-12.1-39.7-6.3-3.6-13.8-2.2-20.3.3s-9.3,7.1-10.9,13.2A1.2,1.2,0,0,0,1069.5,640.9Z" transform="translate(-485.9 -180.8)"/><path class="cls-3" d="M1027.9,684.7c-2.3-8.9-4-18.2-2.1-27.2a20.3,20.3,0,0,1,7.7-12.6c3.3-2.9,7.1-5.3,11.4-6.1s9.1.2,12.1,3.4a19.3,19.3,0,0,1,3.7,7.6,120.8,120.8,0,0,1,4.5,22.3,136.3,136.3,0,0,1-31.2,12.7c-2.3.7-5.2,1.1-6.7-.8" transform="translate(-485.9 -180.8)"/><path class="cls-2" d="M1029.1,684.4c-2.6-10.3-5.4-23.3.3-33s23.6-18.2,29.2-4a93.6,93.6,0,0,1,3.7,13.8c.4,2.2,2,6.9,1.4,9s-3.4,3.1-5.5,4.1a119.2,119.2,0,0,1-15.2,6.4c-3.5,1.2-11.6,5.2-14.8,2.4-1.2-1-3,.7-1.8,1.8,4.4,3.8,11.8.1,16.4-1.5a147.7,147.7,0,0,0,23-10.2,1.5,1.5,0,0,0,.6-1.1c-1-9.1-2.1-20.2-6.7-28.2-3.7-6.5-11.6-7.9-18.3-5.4-20.1,7.5-19.1,29.2-14.7,46.6a1.3,1.3,0,0,0,2.4-.7Z" transform="translate(-485.9 -180.8)"/><path class="cls-3" d="M1027.5,683.3c-1.4-4.2-2.8-8.4-5.4-11.9s-6.9-6.1-11.2-5.8-8,3.5-11.2,6.5-3.6,3.3-4.6,5.5a14.2,14.2,0,0,0-1.3,5.3,26.3,26.3,0,0,0,3.6,15c10.4-4,20.2-8.2,30.2-13.2Z" transform="translate(-485.9 -180.8)"/><path class="cls-2" d="M1028.7,683c-1.9-5.8-4-12-9.1-15.8s-10.4-3.6-15.4-.4-9.6,7.2-11,12.4,0,13.6,3.1,19.4a1.3,1.3,0,0,0,1.4.5c10.4-4,20.6-8.4,30.5-13.3a1.1,1.1,0,0,0,.6-1.1v-1.4c-.1-1.6-2.6-1.6-2.5,0s-4.1,2.7-5.9,3.5-6.6,3.1-10,4.5l-6.4,2.7c-1,.4-4,2.3-5.1,2.1-3.4-.7-3.9-9.7-3.8-12.3.3-6.9,6.9-14.2,13.6-16.3,10.3-3.4,15.2,8.5,17.7,16.2C1026.8,685.2,1029.2,684.5,1028.7,683Z" transform="translate(-485.9 -180.8)"/><path class="cls-3" d="M995.9,695.8c.1.3.3,1.3,0,1.4-6.1,3.5-13.7,7-20.1,10.1a58.2,58.2,0,0,1,6.2-13.1c1.5-2.6,3.7-5.1,6.7-5.3a5.6,5.6,0,0,1,5.4,3.4C994.5,693.3,995.6,695.2,995.9,695.8Z" transform="translate(-485.9 -180.8)"/><path class="cls-2" d="M994.7,696.2c.2,1.1-8.3,4.6-9.4,5.1l-10.2,4.9,1.9,1.4a52.6,52.6,0,0,1,6.4-13.3c2-3,5.8-6.3,9-2.2a23.4,23.4,0,0,1,2.4,4.4c.8,1.4,2.9.1,2.2-1.3-2.3-4.5-5.7-9.9-11.5-6.6-2.7,1.6-4.4,4.5-5.9,7.1a57.1,57.1,0,0,0-5,11.3c-.4,1.1.9,1.8,1.8,1.4,4.9-2.4,9.8-4.7,14.7-7.2,2.6-1.3,6.7-2.1,6-5.7C996.8,693.9,994.4,694.6,994.7,696.2Z" transform="translate(-485.9 -180.8)"/><path class="cls-3" d="M1173.1,629c-5.4,2.5-8.3,8.7-9.7,14.4s-1.3,11.8-1.1,17.7c0,1.7.2,3.5,1.4,4.7s8.7,1.5,10,1.6a201.1,201.1,0,0,0,25.7.7,4,4,0,0,0,2.2-.4c1.2-.6,1.5-2.1,1.7-3.5.8-6.1,1.7-12.3.7-18.3s-6.4-12.6-12.2-14.7S1179.2,626.3,1173.1,629Z" transform="translate(-485.9 -180.8)"/><path class="cls-2" d="M1172.5,627.9c-5.4,2.9-8.3,8.2-9.9,13.9A45.4,45.4,0,0,0,1161,654c-.1,3-.6,7,.3,10s5.7,4,9.5,4.4c6.3.7,12.7,1,19.1,1.1,4.7,0,12.3,1.8,14.3-3.6,1.2-3.1,1.2-7.6,1.4-10.9s.3-8.3-1.1-12.1c-4-11.5-20.3-19.4-31.7-15.1-1.5.6-.9,3,.6,2.4,10.7-3.9,26.1,3.7,29.1,14.7a31.3,31.3,0,0,1,.6,10.1c-.2,2.6.1,8.1-1.3,10.2s-11.7,1.8-15.2,1.7-8.9-.4-13.3-.8-8.6.3-9.7-3.9-.2-13.3,1-18.4,3.9-11,9.1-13.7C1175.2,629.4,1173.9,627.2,1172.5,627.9Z" transform="translate(-485.9 -180.8)"/><path class="cls-3" d="M1216.6,644.1c-.7-.4-1.5.2-1.9.5a19.3,19.3,0,0,0-7.1,10.3,58,58,0,0,0-1.8,12.5c8.6,1.3,17.3,1.8,26,2.4,1.2,0,2.5.1,3.4-.7a4.4,4.4,0,0,0,1.1-2.7c.5-2.9.1-5.4-2.7-8.3C1227.4,651.9,1222.3,647.5,1216.6,644.1Z" transform="translate(-485.9 -180.8)"/><path class="cls-2" d="M1216.6,642.8c-3.8,0-6.9,4.5-8.5,7.5-2.7,5.2-3.2,11.3-3.6,17.1a1.3,1.3,0,0,0,.9,1.2c7.6,1.1,15.1,1.7,22.7,2.2,4.3.3,8.5,1,9.5-4.3s-2.2-8.4-5.7-11.8a86.8,86.8,0,0,0-14.7-11.7c-1.4-.9-2.6,1.3-1.2,2.1a87,87,0,0,1,13.5,10.7c2.4,2.4,5.8,5,5.7,8.8-.1,5.5-7.6,3.7-10.8,3.4l-9.4-.7c-1.5-.2-3.1-.2-4.6-.5a6.6,6.6,0,0,1-3.3-1.2l.2-1.8c-.7-4.3,3.4-18.6,9.3-18.5A1.3,1.3,0,0,0,1216.6,642.8Z" transform="translate(-485.9 -180.8)"/><path class="cls-2" d="M968.5,722.5c10-7,18-12,28.1-13.2,1.6-.2,5.3,2.4,6.8,1.7s1.2-4,2.9-5c5.7-3.5,12-5.8,18.3-8.1s18.3-6.7,21.9-2.4c1.8-6.6,8.2-7.9,14.9-9.5l17-4.1c6.1-1.4,16.7-2.9,21.1,1.6,15-9.1,33.4-11.1,49.4-4.1,7.1-4.1,14.4-4,22.6-3.6a89.9,89.9,0,0,1,20.6,3.6c3.4,1.1,6.4,5.1,6.4,6.1s3.3-4.8,5.2-5.3c7.3-1.9,12.3-1.5,19.8-.7s17,4.3,22,10c-.2-1.9-.4-5,1.5-5.1s6.8,2.3,8.5,3.1c-3-6-11-15-17-22-1,7-12.9,8-20,5.9.9.9-13,1.1-14-5.9,0,3-4,5-5,5.2-11-.4-13.4.6-24.3.3-7-.2-13.4-1.7-14.7-8.5-.4-2.3-.2-6.5-.5-8.9-.8-7.3-11.6-9.1-19-9.4s-14.7-1-22,2.2c-1.2.6-4.7,2.1-5.5,3.1-2.2,2.7.4,8.5,0,12s-5,8.4-9.8,9.8-9.3,3.4-14.2,3.2c-21-1-25.7.7-37.4,5.5-4.6,2-9.1,4.2-13.9,5.4s-8.8,1.3-13.2,2.2a83.4,83.4,0,0,0-12.7,4.5l-24.7,10.6c-7.5,3.2-12.1,6.8-16.7,14.5Z" transform="translate(-485.9 -180.8)"/><path class="cls-2" d="M969.8,724.7c6.6-4.7,13.5-9.5,21.3-11.7,2.1-.6,4.4-1.4,6.6-.9s2.2,1,3.3,1.3,3.7.2,5-1.4.7-1.9,1.3-2.8,3.6-3,5.8-4.1c4.1-1.9,8.4-3.5,12.7-5s15-6.6,18.9-2.8a2.6,2.6,0,0,0,4.2-1.1c1.5-4.5,5.6-5.9,9.8-7s9.8-2.3,14.7-3.5c6.7-1.6,18.4-5.7,24.3-.4a2.9,2.9,0,0,0,3.1.4,54.5,54.5,0,0,1,27.1-8,51.3,51.3,0,0,1,12.4,1.4c3.3.9,6.6,3,9.9,2.5s4.7-2.2,7.1-2.7a36.5,36.5,0,0,1,7.4-.8,98.2,98.2,0,0,1,12.1.7c4.7.5,10.3,1.1,14.6,3,2.5,1.2,3.2,2.4,4.7,4.4s.5,1.1,1.2,1.5a2.7,2.7,0,0,0,3.1-.4c2-2,2.7-4.4,5.8-5.1s9.2-.9,13.7-.6c8.7.8,17.7,3.2,23.8,9.7,1.4,1.5,4.5.4,4.3-1.8s-.6-2.5,1.5-2a28.6,28.6,0,0,1,4.7,2.2,2.6,2.6,0,0,0,3.5-3.5c-4.4-8.3-11.3-15.4-17.4-22.5a2.6,2.6,0,0,0-4.2,1.1c-1.5,6.5-12.3,5.4-16.9,4.2-1.7-.4-3.9,1.3-3.1,3.1h0l.7-2.4c1.1-1.1.5-.2-.6-.4a33.1,33.1,0,0,0-3.3-.4c-2.5-.5-5.4-1.4-6-4.2s-4.4-2.4-4.8,0c-.8,5.2-9.3,3.3-13,3.4a111.6,111.6,0,0,1-15.3.2c-5.1-.3-10.2-1.5-11-7.4-.4-3.9.5-8.1-1.6-11.6-3.9-6.5-13.4-7.4-20.2-7.7-9.3-.4-20.3-.9-28.1,5.1-2.8,2.1-3,5.2-2.6,8.4s1.1,4.7.5,6.9-3.8,5.3-6.8,6.4a40.2,40.2,0,0,1-18.1,3.3,126.9,126.9,0,0,0-15.1.3,61.6,61.6,0,0,0-18.3,5.1c-5.6,2.3-10.9,5-16.8,6.2s-13,1.9-19.3,4.4-11.8,4.9-17.7,7.4-12.7,4.8-18.3,8.3-10.8,10.6-14.1,17.7c-1.3,2.9,3,5.5,4.4,2.6,3.2-7.3,7.2-13.4,14.4-17.2,5.2-2.8,10.8-4.8,16.1-7s12.5-5.6,18.8-7.9,11.9-2.3,17.9-3.7,11.3-4.1,16.9-6.4a59,59,0,0,1,20.7-4.8c5.3-.2,10.6.5,15.8.2a46.9,46.9,0,0,0,15.6-4.2,16,16,0,0,0,8.1-7.5,11.9,11.9,0,0,0,1-4.9c0-2.4-1.5-5.5-.9-7.8,1.2-5,11.4-6,15.5-6.1a79.5,79.5,0,0,1,16.9.9c4,.7,9.1,2.1,10,6.6s-.4,8.3,1.6,12.2c4.4,8.7,17.1,7.6,25.2,7.3,5-.2,11,.6,15.8-.4a9,9,0,0,0,6.8-6.9h-4.8c1,4.3,4.9,6.6,9,7.5,2.5.6,7,1.6,9.2-.4a2.2,2.2,0,0,0,.6-2.4h0l-3.1,3.1c7.5,1.9,20.9,1.9,23.1-7.7l-4.2,1.1c5.9,6.8,12.4,13.5,16.6,21.5l3.5-3.5c-2.9-1.3-6.9-3.9-10.2-3.4s-3.9,4.6-3.6,7.6l4.3-1.8c-7.1-7.5-17.4-10.2-27.4-11.1-5.1-.4-11.9-.9-16.8,1.2-3,1.2-4.2,3.8-6.3,6l3.1-.4c.8.4,1.2,1.5.4,0a4.9,4.9,0,0,0-1-1.5,14.1,14.1,0,0,0-3.5-3.4c-4-2.6-9.5-3.3-14.1-4.1-9.2-1.4-19.8-2.6-28.8.5-2.1.7-3.4,1.8-5.7,1.2s-4.7-1.6-7.2-2.2a57.2,57.2,0,0,0-13.7-1.1,60.6,60.6,0,0,0-28.1,8.5l3.1.4c-7.8-6.8-20.4-2.9-29.2-.8s-24.3,2.9-28,13.9l4.2-1.1c-4.5-4.2-11.7-2.3-17-.7-8.5,2.4-18.1,5.4-25.5,10.3a8.9,8.9,0,0,0-2.6,2.5,7.6,7.6,0,0,1-.6,1.6c-.9,1.2.2.8-1.4.8s-2.5-1.1-3.8-1.3a16.4,16.4,0,0,0-5.4.7c-9.2,2-17.1,7.4-24.8,12.7C964.6,722.2,967.1,726.5,969.8,724.7Z" transform="translate(-485.9 -180.8)"/><path class="cls-2" d="M1357,284.6c-14.9,28.1-37.6,55.9-69.7,64.2-17.5,4.4-35.4,2.4-51.9-4.8-12-5.2-21.6-12.6-30.5-22.1a133.2,133.2,0,0,1-14.3-17.5,90,90,0,0,1-5.8-9.3l-2.2-4.4c.1.2-1.1-2.4-1.1-2.5,1.7-.9-1,2.4.1,1.9s3.2-5,4.2-6.3l6.4-8a176.1,176.1,0,0,1,13.4-15.1c10.4-10.1,20.8-19.9,33.8-26.5,15.4-7.8,32.5-9.2,49.3-5.6s31.2,12.4,42.9,24.3a128.5,128.5,0,0,1,17,21.2c1.9,3.1,3.6,6.3,5.3,9.5l1.9,3.5c.3.6.9,2.5.7,1.4,1.3,6.2,11,3.6,9.6-2.7-1.1-4.8-4.9-10-7.4-14.2a134.8,134.8,0,0,0-15.4-20.8c-11.2-12.6-25.1-22.8-40.9-28.7s-37-7.6-54.3-2.1-29.5,14.7-41.5,26a242.6,242.6,0,0,0-30.9,34.7,21.4,21.4,0,0,0-3.7,6.4c-.9,3.1.6,5.8,2,8.7,3.5,7.7,8.4,14.7,13.6,21.4,9,11.5,19.5,22.7,32.3,30.1,15.8,9.2,34.2,14.8,52.5,13.8,43-2.5,74.1-35.4,93.2-71.4C1368.6,284,1360,278.9,1357,284.6Z" transform="translate(-485.9 -180.8)"/><path class="cls-2" d="M1264.4,185.6v31.6c0,6.5,10,6.5,10,0V185.6c0-6.4-10-6.4-10,0Z" transform="translate(-485.9 -180.8)"/><path class="cls-2" d="M1270.2,384.1l1.3-25.2c.3-6.5-9.7-6.5-10,0l-1.3,25.2c-.4,6.4,9.6,6.4,10,0Z" transform="translate(-485.9 -180.8)"/><path class="cls-2" d="M1322.4,371.6c-3.5-8.5-7.7-16.8-10.9-25.5-2.2-5.9-11.9-3.4-9.7,2.7,3.2,8.7,7.4,16.9,10.9,25.5,2.4,5.8,12.1,3.3,9.7-2.7Z" transform="translate(-485.9 -180.8)"/><path class="cls-2" d="M1360.3,339.1c-2.1-2.7-4.4-5.3-6.6-8l-4.5-5.2-2.3-2.7c-.3-.4-1.6-2.4-1.3-1.4l-.5,3.9.2-.6c2.6-5.8-6-10.9-8.6-5s3.2,10.2,6.7,14.3c1.8,2.1,3.5,4.2,5.3,6.2l2.1,2.6.8,1c1.7,2.1,4.3,3.2,6.9,1.8s3.4-4.7,1.8-6.9Z" transform="translate(-485.9 -180.8)"/><path class="cls-2" d="M1355.7,232.3a243.9,243.9,0,0,0-16.3,20.2c-3.8,5.2,4.9,10.2,8.6,5s9.6-12.3,14.7-18.2-2.7-11.9-7-7Z" transform="translate(-485.9 -180.8)"/><path class="cls-2" d="M1316.4,198.4l-14.7,26c-3.1,5.6,5.5,10.7,8.7,5l14.7-26c3.1-5.6-5.5-10.6-8.7-5Z" transform="translate(-485.9 -180.8)"/><path class="cls-2" d="M1217.1,205.8c4.2,8.8,8.8,17.3,13.8,25.6,3.4,5.5,12,.5,8.7-5a276.6,276.6,0,0,1-13.9-25.7c-2.7-5.8-11.4-.7-8.6,5.1Z" transform="translate(-485.9 -180.8)"/><path class="cls-2" d="M1178.1,238.8l17.4,22.2c3.9,5.1,10.9-2,7-7l-17.3-22.3c-4-5.1-11,2-7.1,7.1Z" transform="translate(-485.9 -180.8)"/><path class="cls-2" d="M1175.8,336.8c6.1-5.1,12.3-9.8,18.2-15s-2.2-11.2-7-7-12.2,9.9-18.3,14.9,2.2,11.2,7.1,7.1Z" transform="translate(-485.9 -180.8)"/><path class="cls-2" d="M1217.8,369.7l14.1-19.8c3.7-5.3-4.9-10.3-8.6-5l-14.1,19.8c-3.7,5.2,4.9,10.2,8.6,5Z" transform="translate(-485.9 -180.8)"/><path class="cls-2" d="M1242.3,274.5c-3.5,7.2-3.8,12.7-1.2,20.3,1.2,3.4,4.2,9,7,11.4a18.5,18.5,0,0,0,9.9,4.8c6.4,1.2,15.7,1.8,21.9-.4a22.4,22.4,0,0,0,13-13.1,27.6,27.6,0,0,0,.5-19c-4.5-13.8-14.2-20.1-28-20.1S1245.7,267.2,1242.3,274.5Z" transform="translate(-485.9 -180.8)"/><path class="cls-2" d="M1238,271.9c-5.7,12.7-3.9,28.9,7.1,38.3s27.5,9.3,38.7,4.2c14.2-6.6,19.1-24.6,14-38.6-4.2-11.5-12.9-19.7-25.1-21.8-15.1-2.5-28,4.3-34.7,17.9-2.9,5.8,5.8,10.9,8.6,5.1,5.2-10.6,14.7-15.7,26.5-12.7s17.9,14.5,16.6,25.7c-.7,6.7-4.7,13.3-11.2,15.8s-12.2,1.5-17.9.6c-13.3-2.2-19.3-17.6-14-29.4C1249.2,271.2,1240.6,266.1,1238,271.9Z" transform="translate(-485.9 -180.8)"/><path class="cls-2" d="M608.1,435.9a8.4,8.4,0,0,0-.2-14.3c2.3-2.2,1.9-6.2,1-9.2a8.8,8.8,0,0,0-6.5-6.3,9.8,9.8,0,0,0,1.5-10.6,9.5,9.5,0,0,0-9.2-5.3c1.5-4.3-1.4-9.4-5.6-11.1s-9.2-.8-13.1,1.6a8.6,8.6,0,0,0-9.2-5.9,8.8,8.8,0,0,0-7.3,8.3,9.2,9.2,0,0,0-9.9-5.7,9.5,9.5,0,0,0-7.7,8.5l-.9.9c-.1-.9-1.3-1.3-2.2-1.3-5.1.4-8.9,6.2-7.2,11-6.1,2.1-12.2,8.7-8.2,15.6-2.1,2.3-4.2,4.8-5,7.9s.1,6.7,2.8,8.3a19.2,19.2,0,0,0-4.8,9.9,10.3,10.3,0,0,0,1,7.1c1.3,2,3.9,3.4,6.2,2.5a9.5,9.5,0,0,0-1.4,10.2,9.4,9.4,0,0,0,8.6,5.4,10,10,0,0,0,3.7,10.3,9.7,9.7,0,0,0,10.8.4,7.5,7.5,0,0,0,13.6,4.6,8.5,8.5,0,0,0,15.8,1.6,7.1,7.1,0,0,0,7.2,2.7,7.4,7.4,0,0,0,5.5-5.4c3.1,2.8,9.5,1.4,11.8-2.1a12.1,12.1,0,0,0,.6-11.7,6.6,6.6,0,0,0,7.6-4.6c1.2-4.4-.7-8.9-2.3-9.5,3.6-1.2,5.5-3.3,6.2-6.4S611.1,436.3,608.1,435.9ZM570.2,432a9.4,9.4,0,0,0-3.1,7.2,7.3,7.3,0,0,0-5.1-6.1c-2.7-.9-5.1-.7-7,1.4,2-4.9,2.2-8.9-1.8-12.4a13.8,13.8,0,0,0,5.6-.9c2.4-1,4.5-3.4,4.5-6.1a13.2,13.2,0,0,0,4.8,4.3c1.9.9,4.6.7,5.8-1.1-.7,1.9-1.2,4.5-.4,6.4a21.8,21.8,0,0,0,2.9,4.9C573.8,429.3,572.2,430.2,570.2,432Z" transform="translate(-485.9 -180.8)"/><path class="cls-2" d="M706.6,407.9a11.4,11.4,0,0,0-.9-10.6,12.7,12.7,0,0,0-9.5-5.5c.2-4.7-1.2-9.8-5.2-12.4s-10.8-1.2-11.9,3.3a7.8,7.8,0,0,0-6.3-7.9c-3.8-.7-7.9,1.6-9,5.1-1.8-4.5-8.1-6.4-12.6-4.3s-6.8,7.3-6.3,12a9.9,9.9,0,0,0-11.6-1.1,8.9,8.9,0,0,0-3.5,10.7,8.9,8.9,0,0,0-8.3,6.7,8.5,8.5,0,0,0,4.8,9.2c-3.4-.3-6.4,5.4-6.2,8.6s2,3.9,4.2,6.3a8.5,8.5,0,0,0-5.8,7,8.1,8.1,0,0,0,4.6,7.8c-1,3.2-2,6.5-1.3,9.8s3.4,6.4,6.8,6.5c-.3,4.5-1.2,10,1.7,13.6s10.3,4.3,13.9,1.3a8.5,8.5,0,0,0,4.4,9.8c3.5,1.8,9.1-.1,11.7-3,6.5,5.8,17.6,5.2,22.2-2,3.1,1.4,6.8,2.1,9.9.7s4.9-5.5,3-8.2a8.2,8.2,0,0,0,8.2-3.4,7.4,7.4,0,0,0-.4-8.5,11.1,11.1,0,0,0,2-15.9c5.7-2.9,7.4-11.1,3.3-15.9A14.3,14.3,0,0,0,706.6,407.9Zm-34,22.7c-.5,2.5.2,5,1,7.3a5.9,5.9,0,0,0-5.8-1.5,5.7,5.7,0,0,0-3.7,4.7,5.3,5.3,0,0,0-3.3-5,5.4,5.4,0,0,0-5.9,1.4c1.8-2.1,3-5,2.4-7.7s-6.1-4.9-6.1-4.9c2.3-.5,4.6-.8,6.3-2.4a5.6,5.6,0,0,0,1.5-6.3,7.9,7.9,0,0,0,7,3.5,8.1,8.1,0,0,0,6.6-4.3,8.9,8.9,0,0,0,4.7,10C674.8,425.8,673.1,428.2,672.6,430.6Z" transform="translate(-485.9 -180.8)"/><path class="cls-2" d="M790,407.4c2.9-3.3,3.7-8.4,2.7-12.7s-4.6-7-9.1-6.3c1.6-3.5-.1-8.3-3.5-10.2s-9.1-.4-11.3,2.7a7.1,7.1,0,0,0-6.4-6,7.2,7.2,0,0,0-7.3,4.7c.2-2.9-3.2-5.3-6.2-4.8a10.2,10.2,0,0,0-7.5,5,7.2,7.2,0,0,0-7.5-2.8,7.1,7.1,0,0,0-5.1,6.1c-3.5-1.4-7,2.1-7.7,5.8s1.6,7.4,4.7,9.6h-1c-2.7,1.9-5.1,4.7-5.4,8s1.9,6.9,5.2,7.4c-4.7,3.3-4.1,11.6,1.2,14.2-5.1,2.9-5.6,11.1-.9,14.5a10.8,10.8,0,0,0-5.1,7.3c-.4,3,1.2,6.4,4.1,7.4a6.9,6.9,0,0,0,.3,13.6c-3.2.1-3.7,3.9-3.5,7,.2,5,2.8,7.3,7.2,7.3s8.9-1.8,9.8-5.5c1.1,3.1,3.1,5.3,6.4,5.5s4.2.1,6.5-2.3c2.6,3.4,8.2,3.4,10.4-2.4,1.4-3.7,1.6-7.7-2.4-8a8.9,8.9,0,0,0,5.5-7.3,5.5,5.5,0,0,0-4.5-6,6.4,6.4,0,0,0,5.6-6.6c.1-3.2-.8-5.7-3.9-5.9,3-.3,3.7-2,3.9-4.1s.5-3.2-1-5a8.6,8.6,0,0,0,8.3.4c1.8-.9,3.5-4.9,1.8-6.8,3.1,2,7.5,3.1,10.4.7s5-7.8,2.1-10.2c3.2.1,4.5-2.7,5.4-5.8S792.8,408.9,790,407.4Zm-23.4,8.8c-1.2-1.5-2.1-2-3.9-1.2s-3.6,2-3.7,3.4.1.9.1,1.4,1.2-.9,1.3-1.4a6.3,6.3,0,0,0-1.6-3.5c-1.3-1.3-5.1-1.5-6.3-.2a7.7,7.7,0,0,0,0-10.9,19.8,19.8,0,0,0,4.6,2,6.2,6.2,0,0,0,5.3-1.7c1.4-1.3.9-3,1.7-4.8-.4,2.1,1.8,4.3,3.4,5.7s2.6,1.7,4.6,1A8.8,8.8,0,0,0,766.6,416.2Z" transform="translate(-485.9 -180.8)"/><path class="cls-2" d="M810.6,390.8a7.4,7.4,0,0,1,2.3-10.3c3.6-2.1,8.9-1,11.1,2.3-.5-3.9,3-7.8,7.2-8.1s8.2,3.1,8.3,7c.5-3,3.9-5.3,7.1-4.9a6.2,6.2,0,0,1,5.3,6.6c1.2-3.5,6-5.4,9.4-3.7s4.5,6.5,2.1,9.3c6.3,1,8,10.6,2.5,13.5,3.4,1.4,2.1,7-1.6,7.9s-7.3-1.6-9.2-4.6c1.4,2.8-2,6.1-5.3,5.9s-5.8-3-7-5.9a10.7,10.7,0,0,1-12.8,2.6c3.6,0,4.9,5.7,1.7,7,3.1-3.5,10.7.2,9.4,4.6,4.8-2.3,11.2,1.5,12.6,6.4,2.8-1.3,7.2-.6,9.1,2s1.6,6.9.4,9.7c7.5,2.4,8.9,11.4,4.3,17.4a7.2,7.2,0,0,1,4.4,8,7.9,7.9,0,0,1-7.4,5.7,7.2,7.2,0,0,1-2,8.5,8.3,8.3,0,0,1-9.3.4c1.5,2.6-1.8,5.8-5,5.6s-5.7-2.2-8-4.2c-2.7,5.9-13.7,5.9-16.4-.1.2,4-5.2,6.8-9.2,5.4s-6.2-5.6-6.3-9.6c-2.1,3.4-7.4,4.7-11,2.7a7.3,7.3,0,0,1-2.5-10.3c-3.4,1.9-8.5,1.2-10.5-2.1s-.7-8.2,3.2-8.1c-2.8-.9-2.8-4.4-1.3-6.8s5.5-4.6,7.8-2.8c-1.5-2.8,1.5-6.4,4.8-6.3a6.9,6.9,0,0,1,6.4,6.2,7.5,7.5,0,0,1,8.8-2.6,6.5,6.5,0,0,1,3.8,7.8c3.3-2.8,9.6.3,10.7,4.3-.9-4,3.9-8.2,8.1-6.9-4.5-1.5-6.6-7.4-4-11.1a6.2,6.2,0,0,1-7.1,1.5,5.4,5.4,0,0,1-2.9-6.3c-4.8,2.6-11.8-2.3-10.4-7.3a7.8,7.8,0,0,1-8.5-2.5,6.5,6.5,0,0,1,.5-8.2c-5.1-2.6-5.1-10.7,2.1-11.5-5.3-4-2.3-12.6,4.3-14.1Z" transform="translate(-485.9 -180.8)"/><path class="cls-2" d="M894.1,393.6a9.5,9.5,0,0,1,1.1-11.7c1.9-1.7,5.5-2.3,6.6.1a6.6,6.6,0,0,1,5-6.5,6.7,6.7,0,0,1,7.4,3.6,5.7,5.7,0,0,1,6-4.4,5.8,5.8,0,0,1,5,5.6,6.7,6.7,0,0,1,9.2.6,6.8,6.8,0,0,1-.8,9.2,9,9,0,0,1,1,17.2c3.2.5,5.2,4.2,4.9,7.4s-2.5,6-4.7,8.4a7.1,7.1,0,0,1-1.7,12.9c3.6.9,4.6,6.4,1.8,8.9s-7.5,1.6-9.7-1.4a5,5,0,1,1-9.9.7,7.3,7.3,0,0,1-7.3,4.4,6.5,6.5,0,0,1-5.7-6c-1.2,3.5-7,3.2-8.7-.1s-.1-7.4,2.7-9.9a5.7,5.7,0,0,1-1.6-11,7.6,7.6,0,0,1-4.6-7.1,7.5,7.5,0,0,1,5.1-6.8,8.5,8.5,0,0,1-5.7-7.5c-.2-3.4,1.6-5.3,4.6-6.6Z" transform="translate(-485.9 -180.8)"/><path class="cls-2" d="M895.7,458.9c1.7-1.5,5.5-1.9,6.5,0a5.4,5.4,0,0,1,4.8-5.2,5.6,5.6,0,0,1,5.9,4c.5-2.8,2.9-4.5,5.9-4.7s5.8,3.3,4.1,5.6c1.2-2.7,5.2-3.9,7.9-2.3A5.2,5.2,0,0,1,932,464c3.1-.1,6.6,1.3,7.7,4.1s-1.3,6.5-4.5,6c3,1,3,5.6.3,7.2s-6.4.2-8.3-2.2c1.3,2.6-1.8,5.8-4.9,5.5s-5.3-3-6.1-5.7c.7,2.9-1.9,6.1-5.1,6.2s-6.1-2.8-5.7-5.8a12.9,12.9,0,0,1-4.1,3.6,6.4,6.4,0,0,1-5.9-.8c-1.7-1.4-3.1-5.4-.5-6.6-3.5,0-4.8-3-4.9-5s2.6-6.3,4.4-5.4C893.1,461.8,894,460.4,895.7,458.9Z" transform="translate(-485.9 -180.8)"/><path class="cls-2" d="M975.1,488.1V372c0-10.1-1.8-19.5-8.8-27.4s-15.6-10.7-25.2-10.8H519.7a33.2,33.2,0,0,0-27.3,13.9c-5.6,7.8-6.4,16.5-6.4,25.7V475c0,5.7-.4,11.5.3,17.2a33.4,33.4,0,0,0,32.6,29.6c26.8.6,53.7,0,80.5,0H866.6l-5-5c.3,19.6,15.6,38.2,30.2,49.9a93.9,93.9,0,0,0,55.5,21.1c4.8.2,7-7.1,2.5-9.3-21.2-10.3-24.9-40.6-23.2-61.7l-5,5c8.7,0,18,1,26.6-.6,15.9-2.9,26.5-17.4,26.9-33.1.1-6.4-9.9-6.4-10,0-.3,12.9-9.9,23.4-23,23.7-6.8.2-13.6,0-20.5,0-2.8,0-4.7,2.3-5,5-2,24.6,3.7,58.4,28.2,70.3l2.5-9.3a82.3,82.3,0,0,1-48.4-18.2,87.7,87.7,0,0,1-17.7-18.8c-5-7.3-9.4-15-9.6-24a5,5,0,0,0-5-5H519.5a23.5,23.5,0,0,1-23.4-21c-.6-5.3-.1-10.8-.1-16.1V374.4c0-8.2.1-16,5.8-22.7s11.6-7.9,18.9-7.9c27.2-.1,54.4,0,81.6,0h328c10.1,0,20.3-1.1,28.1,7,6.4,6.6,6.7,14.7,6.7,23.2V488.1C965.1,494.5,975.1,494.5,975.1,488.1Z" transform="translate(-485.9 -180.8)"/></svg>