<svg xmlns="http://www.w3.org/2000/svg" viewBox="0 0 374.3 430.8"><defs><style>.cls-1{fill:#1d1d1b;}.cls-2{fill:#fff;}.cls-3,.cls-4{fill:none;stroke:#1d1d1b;stroke-miterlimit:10;stroke-width:3px;}.cls-3{stroke-linecap:round;}</style></defs><title>Cool-Cat-Build-6</title><g id="Cat"><path class="cls-1" d="M301.7,410.6c2.4,14.2-7,29.1-21.2,32.5-7.4,1.7-15.2.8-22.8,2a35.7,35.7,0,0,0-16.7,7.2c-10.7,8.1-18.5,19.1-29.8,26.4-8.1,5.3-15.7,7.1-25.2,5.2a57.1,57.1,0,0,1-19.1-7.8c-24.6-15.7-32.1-52.8-9.1-73.5,8.7-7.8,20.6-9.9,32-10.9a139.6,139.6,0,0,1,14.5-.4c6.3.1,12.5,2.1,18.8,2.9a22.5,22.5,0,0,0,17.7-4.7c5.8-4.8,11-8.5,18.2-11,12.3-4.2,25.6-1.7,33.1,9.7.9,1.4,3.1.1,2.2-1.2-5.5-8.4-15.6-13.9-25.6-13.2-6,.4-11.8,2.5-17.2,5.1-7.2,3.4-12.3,10.4-19.9,12.5s-16.3-1.5-23.9-2.4a94.3,94.3,0,0,0-16.8.1c-11.1.8-23.3,2.7-32.3,9.6-23.5,18-21.7,54.2-1,73.4,10.1,9.4,25.5,16.5,39.5,15.1S224,471.9,234,461.9c7.3-7.3,15.1-13.3,25.6-14.6,8.7-1,17.8.2,26.1-3.3,13.1-5.5,20.7-20.2,18.4-34.1-.3-1.6-2.7-.9-2.4.7Z" transform="translate(-116.6 -164.1)"/><path class="cls-2" d="M215.9,449.9s-10.3-28-12.1-32.2l7.8-3.5c1.2,1.8,5.5,8.2,7.5,13.3a99.7,99.7,0,0,1,5.5,18.4Z" transform="translate(-116.6 -164.1)"/><path class="cls-1" d="M216.9,449.7c-2.5-6.9-5.1-13.7-7.7-20.6-1.3-3.6-2.9-7.1-4.1-10.8-.3-1.2-1,.5-.3,0a11.2,11.2,0,0,1,2.5-1.1l4.8-2.1-1.4-.4a78.4,78.4,0,0,1,11.1,23.8c.4,1.4,2.1,5.1,1.9,6.3s-.8.8-2,1.4l-6.3,2.9c-1.1.5-.1,2.2,1,1.7l8.7-4a.9.9,0,0,0,.5-1.1,84.9,84.9,0,0,0-13.2-32,.9.9,0,0,0-1.3-.3l-7.8,3.4c-.4.1-.6.7-.5,1.1,4.3,10.7,8.2,21.5,12.2,32.3C215.4,451.4,217.4,450.9,216.9,449.7Z" transform="translate(-116.6 -164.1)"/><path class="cls-1" d="M263.6,446c-2.5,6.3,1.5,12.2,1,18.7-.6,8.3-6.5,14.9-11.1,21.4-2.7,3.8-7.3,9.6-6,14.7s16.9,14,9.1,21.4c-1.4,1.3.7,3.5,2.1,2.1,4.2-3.9,3.3-9.5.2-13.8s-6.1-5.5-7.7-8.9,2.3-10.3,4.9-14c4.1-5.8,8.9-11.5,10.8-18.6a19.7,19.7,0,0,0,.5-8.7c-.6-4.6-2.7-8.9-.9-13.5.7-1.8-2.2-2.6-2.9-.8Z" transform="translate(-116.6 -164.1)"/><path class="cls-1" d="M253.6,517.6c.8,2.2,1.9,4.9.7,7.1s-4.8,2.8-6.5,1-3.4.7-2.1,2.1,7.2,2.5,9.8.2,2.3-7.6,1-11.2c-.6-1.8-3.5-1.1-2.9.8Z" transform="translate(-116.6 -164.1)"/><path class="cls-1" d="M220,475.2c.9,6.1.1,10.9-1,16.8a39.4,39.4,0,0,0-.7,10.3c.7,7,4.5,11.5,9.6,16.1s9.4,10.9,15.8,10,6.7-5.7,5.9-10.2c-.3-1.9-3.2-1.1-2.8.8s0,3.7-.9,4.8c-2.9,4.2-7.1.3-9.3-1.5s-3.5-3.2-5.3-4.8c-4.3-4-8.7-7.7-9.7-13.8s.3-10.7,1.4-16a37.2,37.2,0,0,0-.1-13.3c-.3-1.9-3.2-1.1-2.9.8Z" transform="translate(-116.6 -164.1)"/><path class="cls-1" d="M196,485.9c-3.2,6.5-12.9,8.7-17.8,14-3.4,3.5-7.2,8.3-4.6,13.2.9,1.7,3.5.2,2.6-1.5-3.1-5.9,8.3-13.3,12.2-15.6s8.1-4.4,10.2-8.5c.8-1.8-1.7-3.3-2.6-1.6Z" transform="translate(-116.6 -164.1)"/><path class="cls-1" d="M182,503.9c-3.8,1.8-7.7,5.4-8.2,9.8a6.2,6.2,0,0,0,6.9,6.6c1.9-.3,1.9-3.3,0-3-4.4.6-4.3-4-2.4-6.6a12.6,12.6,0,0,1,5.2-4.2c1.8-.8.2-3.4-1.5-2.6Z" transform="translate(-116.6 -164.1)"/><path class="cls-1" d="M188.1,510.3a10.6,10.6,0,0,0-8.6,8.5c-.6,4.2,1.2,6.6,5.3,7,6.2.5,12.5-.5,17.7-4.2s11.7-8.2,19.5-9.8c1.9-.4,1.1-3.3-.8-2.9-7.4,1.5-13.2,4.8-19.1,9.3a21.3,21.3,0,0,1-13.3,4.6c-2.3.1-5.6.7-6.4-2.6s3.8-6.5,6.5-7,1.1-3.3-.8-2.9Z" transform="translate(-116.6 -164.1)"/><path class="cls-1" d="M259.4,395.8c-20.9,3.1-16,37,5.1,33.7,9.1-1.4,14.7-8.9,13.8-18.1s-9.1-16-18.5-15.6a1.3,1.3,0,0,0,0,2.5c7.6-.3,14.2,4.2,15.8,11.9a13.9,13.9,0,0,1-12.5,17c-17.4,1.7-20.4-26.5-3-29,1.6-.2.9-2.6-.7-2.4Z" transform="translate(-116.6 -164.1)"/><path class="cls-1" d="M159.1,398.3c-21.7,11.5-33.7,38.1-23.8,61.3,4.6,10.8,12.3,21.4,23.1,26.6a47.1,47.1,0,0,0,36.3,1.3c1.5-.6.8-3-.7-2.4a45.3,45.3,0,0,1-34.3-1c-10.4-5-17.7-15.2-22.1-25.5-9.4-22,2.2-47.2,22.8-58.1,1.4-.8.1-2.9-1.3-2.2Z" transform="translate(-116.6 -164.1)"/><path class="cls-2" d="M203.3,448.6c-2.1.6-4.3-.3-6.2-1.3a17.4,17.4,0,0,1-3.6-2.4c-4.3-4.1-3.9-11.4-8.1-15.5a34,34,0,0,0-3-2.3,19.3,19.3,0,0,1-6.7-10.5c-1.3-5.3-.4-10.9.8-16.2a19.5,19.5,0,0,1,1-4c2-5.7,7-9.9,12.1-13.3,3.4-2.2,5.5-4.1,9.1-5.8a14.7,14.7,0,0,1,3.5-.8c1.2.1,3,.9,3.6.6s-2.4-4.8-3.9-7.1a20.7,20.7,0,0,1-2.7-6.3,10.5,10.5,0,0,1,.6-7.6c1.3-2.5,3-4.2,4.3-6.6a17.8,17.8,0,0,0,1.3-4.5,60,60,0,0,0,1.2-8.5c.1-2.3-.9-3.8-.4-6s2.4-5,3.5-7,3.1-5.3,4.7-7.9a51.8,51.8,0,0,1,13.2,11.5,32.6,32.6,0,0,1,25.9-2.8c3.1,1,6.3,2.8,7.5,5.8a56.2,56.2,0,0,1,7.3-13.1,19,19,0,0,1,4.5,6.3c3.2,6.1-.2,13.9,1.1,20.1s-4.3,11.4-4.6,14.5a59.5,59.5,0,0,1-1.7,12.1,19.1,19.1,0,0,1-9.3,11.5c-2.5,1.2-5.2,1.9-7.6,3.1-4,1.9-7.3,5-10.7,7.9a20.6,20.6,0,0,1-7.5,4.5,22.8,22.8,0,0,1-5.2.4c-5.4-.1-10.9-.5-16,1.1s-9.9,5.9-10.2,11.2,2.3,8,4.9,11.2,5.8,6.3,7.1,10.2a15.2,15.2,0,0,1-.6,10.9l-.7.4v.5c0,1.9-1.4,4.3-2.3,4.8a8.4,8.4,0,0,1-6.4-.2Z" transform="translate(-116.6 -164.1)"/><path class="cls-1" d="M203.3,447.1c-10.6,1-10.9-9.9-15-16.3-1.6-2.5-3.9-3.8-6-5.8-4.1-3.9-5.8-9.1-5.7-14.7.2-9.2,2.8-17.4,10.1-23.3,3-2.3,6.2-4.5,9.3-6.5s5.8-1.8,9.8-1.9a1.5,1.5,0,0,0,1.5-1.5c.2-2.5-2.9-5.9-4.1-7.9s-3.7-7.5-2.5-11.3,3.7-5.4,5-8.4a32.5,32.5,0,0,0,2.3-14.8c-.4-3.9.5-6.1,2.4-9.4s3.5-6,5.3-8.9l-2,.5a53.1,53.1,0,0,1,12.8,11.3,1.5,1.5,0,0,0,1.8.2c8-4.4,26.1-7.8,31.4,2.5.7,1.2,2.3.7,2.8-.4a58.8,58.8,0,0,1,7.1-12.7l-2.4.3a16.5,16.5,0,0,1,5.5,12.8c0,3.7-.8,7.3-.5,11a16.9,16.9,0,0,1-2.2,10.6,21.1,21.1,0,0,0-2.2,5.4c-1.5,8.7-1.3,17.5-10.3,22.3-3.4,1.8-7.2,2.6-10.5,4.8a70.1,70.1,0,0,0-8,6.4c-4.3,3.5-7.9,4.5-13.5,4.5a60,60,0,0,0-11.2.4c-5.4.9-11,3.7-13.5,8.9s-.4,10.8,3,15.2c2,2.7,4.5,5.1,6.3,8a14,14,0,0,1,2.3,7.4c0,.9-.1,4.7-1.4,5.3a1.2,1.2,0,0,0-.7,1.3c.1,4.5-3.6,4.6-6.8,3.6a1.6,1.6,0,0,0-1.9,1.9l.3,1.1c.4,1.9,3.3,1.1,2.9-.8l-.3-1.1-1.8,1.8c3.9,1.3,8,1.3,9.8-2.9a6,6,0,0,0,.6-1.9c.7-3.3-.4.7.3-.9a16.8,16.8,0,0,0,1.9-6.6c.4-6.7-3.7-11.3-7.7-16.2s-6.2-8-4.6-12.9,7.1-7.5,11.9-8.2c6.9-1.2,14.6,1.2,21.1-2.1,2.8-1.5,5.2-3.8,7.6-5.8a42.1,42.1,0,0,1,12-7.2c5.5-2.1,9.9-5.5,12.4-11s1.4-12.9,4.3-18.6c1.3-2.7,2.9-5.4,3.2-8.4s-.5-6.9-.2-10.5c.7-7.9-.1-13.9-6-19.7a1.4,1.4,0,0,0-2.3.3,58.5,58.5,0,0,0-7.4,13.4l2.7-.3c-6.2-11.9-26-8.8-35.5-3.6l1.8.3a53.9,53.9,0,0,0-13.4-11.8,1.7,1.7,0,0,0-2.1.5c-2.7,4.5-7.3,10-8.3,15.3-.6,2.6.4,5.4.2,8.1-.3,4.2-1.1,9-3.5,12.5s-5.2,8.3-3.5,14a22.3,22.3,0,0,0,2.9,6.5c.7,1.2,3.5,4.5,3.4,5.9l1.5-1.5c-3.7.1-5.8-.8-9.3,1.1a78.6,78.6,0,0,0-11.7,8.1c-8.1,6.4-11,15.4-11.2,25.5a22.4,22.4,0,0,0,3.8,13.5c2.8,4.1,7.4,6.1,9.4,10.7s2.3,7.9,5.2,10.9,7.2,5.1,11.3,4.7C205.2,449.9,205.2,446.9,203.3,447.1Z" transform="translate(-116.6 -164.1)"/><path class="cls-1" d="M200.9,446.5c1.5,1.8,3.1,3.5,5.5,3.5a7.9,7.9,0,0,0,4.8-2c2.8-2.3,2.1-7.4.5-10.1s-3-.2-2.2,1.2,1.8,5.3.2,6.9a5.6,5.6,0,0,1-2.5,1.4c-2,.6-3.4-1.3-4.5-2.6s-2.8.5-1.8,1.7Z" transform="translate(-116.6 -164.1)"/><path class="cls-1" d="M205.3,346c-.9-1.2-1-4.1.1-5.2s4.1-.4,5.3-.4h16c2.9,0,17.5.6,20.4.8s13,1,14.6,1.1a78.2,78.2,0,0,1,11.8,1.8c.8.2,1.4.6,1.4,1.4s.3,3.7.4,5.8a3.6,3.6,0,0,1-.2,1.1c-.4,1.4-2.4,1.3-3.8,2s-2.5,4.4-4.1,6.5a7.1,7.1,0,0,1-5,2.6,17.6,17.6,0,0,1-5.6-.2c-3.4-.4-7.2-1.1-9.1-3.9a16.1,16.1,0,0,1-2.1-5.9c-.2-1.7-.8-6.9-4.1-7.1s-5.4,5.7-6.1,8-2.2,4.1-3.6,4.9a7.1,7.1,0,0,1-3.6.9l-4.7.2a16.9,16.9,0,0,1-4.5-.7,14.1,14.1,0,0,1-8.6-8.3,5.4,5.4,0,0,0-1-2A26.2,26.2,0,0,1,205.3,346Z" transform="translate(-116.6 -164.1)"/><path class="cls-1" d="M206.4,345.4c-.4-.8,1.6-3.6,2-3.8s1.2,0,1.5,0h12.8c4.5,0,9.1.2,13.6.4,9.3.3,18.7.7,27.9,1.8,4,.4,10.3.5,9.8,6-.4,3-3,2.7-4.8,4.7s-2.1,5.8-5.9,7.5-11.5.1-14.1-2.5-1.5-9.6-5.1-13-5-1.1-6.9,1.2-2.3,4.7-3.5,7c-2.5,4.7-8.5,5.1-13.3,4.1s-6.8-4.9-9.5-9.1c-1.2-1.8-3.2-2.9-4.7-4.6s-2.8.6-1.7,1.8,3.7,3.2,5,5.8a15.4,15.4,0,0,0,7.3,7.6c4.8,2.2,13.7,2.7,17.4-1.8,1.9-2.3,2.5-5.3,4.1-7.9,4.4-7.3,5.5,2.9,6.4,5.7,2,6.4,7.5,8,13.8,8.5,3.2.2,6.7,0,9.1-2.5a13.5,13.5,0,0,0,1.9-3.1c.9-1.9.8-2.6,3.3-4,.7-.4,1.6-.3,2.4-.9,2.8-2.3,2-9.9-1.4-11.4s-8.8-1.6-12.6-1.9l-9.8-.8c-5.6-.4-11.2-.6-16.9-.8-7.7-.3-15.5-.1-23.2-.2-2-.1-5.1-.7-6.7.7s-1.3,4.9-.3,6.7S207.2,346.8,206.4,345.4Z" transform="translate(-116.6 -164.1)"/><path class="cls-1" d="M265.7,332.8c.9-2,1.8-4,2.8-6h-1.8a8.4,8.4,0,0,1,.9,7.5l2,.3v-.3c-.1-1.3-2.1-1.3-2,0v.3a1,1,0,0,0,1.9.3c1.2-2.9.5-6.5-1-9.1a1.1,1.1,0,0,0-1.8,0c-1,2.1-2,4.3-2.9,6.5s1.5,1.7,1.9.5Z" transform="translate(-116.6 -164.1)"/><path class="cls-1" d="M212.4,334.7a28.7,28.7,0,0,1,1.8-8.2,3,3,0,0,1,.4-1c-.2.3-.6-.1.1.4s.8.2,1.1.4,2.6,2.8,3.6,4.1,2.2-.4,1.4-1.4-2.5-3.8-4.7-4.7-2.5-1-3.2.2a12.3,12.3,0,0,0-1.4,4.2,25.3,25.3,0,0,0-1.1,6c-.1,1.3,1.9,1.3,2,0Z" transform="translate(-116.6 -164.1)"/><path class="cls-1" d="M219.6,379c6.2,2.1,13.1-.2,15.6-6.4.4-1.2-1.5-1.8-2-.6-2,5.3-8,6.8-13,5.1a1,1,0,0,0-.6,1.9Z" transform="translate(-116.6 -164.1)"/><path class="cls-1" d="M245.7,379.2c-4,2.3-10.2.1-11.8-4.2-.5-1.2-2.4-.7-1.9.5,2,5.6,9.5,8.4,14.8,5.5a1.1,1.1,0,0,0-1.1-1.8Z" transform="translate(-116.6 -164.1)"/><path class="cls-1" d="M235.2,372.1a5.8,5.8,0,0,0-1.1-3,4.2,4.2,0,0,1-1-2c-.2-1.3,1.5-1,2.3-.8a7.8,7.8,0,0,1,2.5.7c1,.5,1.1.7.3,1.6s-2.9,1.7-4.3,2.7,0,2.5,1.1,1.7,4.6-2,5.6-4.4-2.1-3.7-4.1-4.2-5.1-.8-5.6,1.5.4,2.2.8,3.1,1.6,2.1,1.5,3.1,1.8,1.3,2,0Z" transform="translate(-116.6 -164.1)"/><path class="cls-1" d="M252.1,370.7c11.9-1.3,23.9-2.8,35.8-4.5,1.3-.2.8-2.1-.5-1.9-11.8,1.6-23.5,3.1-35.3,4.4-1.3.2-1.3,2.2,0,2Z" transform="translate(-116.6 -164.1)"/><path class="cls-1" d="M252.8,374c11.1-.7,22.3-1.4,33.4-1.8,1.3-.1,1.3-2.1,0-2-11.1.4-22.3,1.1-33.4,1.8-1.2.1-1.3,2.1,0,2Z" transform="translate(-116.6 -164.1)"/><path class="cls-1" d="M253.2,377.1h31.2a1,1,0,0,0,0-2H253.2a1,1,0,0,0,0,2Z" transform="translate(-116.6 -164.1)"/><path class="cls-1" d="M184.4,351.7c11.1,4.9,22.3,9.5,33.6,13.9,1.2.5,1.7-1.5.5-1.9-11.1-4.4-22.2-8.9-33.1-13.7-1.2-.5-2.2,1.2-1,1.7Z" transform="translate(-116.6 -164.1)"/><path class="cls-1" d="M182.4,358.4l34.3,10.4a1,1,0,0,0,.5-2l-34.3-10.3a1,1,0,1,0-.5,1.9Z" transform="translate(-116.6 -164.1)"/><path class="cls-1" d="M183.9,366.3c10.6,1.1,21,3.9,31.6,5.5,1.2.2,1.8-1.7.5-1.9-10.7-1.6-21.3-4.4-32.1-5.6-1.3-.2-1.3,1.8,0,2Z" transform="translate(-116.6 -164.1)"/><path class="cls-1" d="M172.5,391.6c-10.2-8-21-14.4-31.9-21.2-15.4-9.6-24.6-25.5-19.9-43.8,2.6-10.1,8.4-19.6,16.8-25.9,3.5-2.6,13.1-9.6,15.9-3.1,2,4.5-4.5,8.8-7.6,11.3-6.1,4.9-11.3,9.2-13.8,17a28.2,28.2,0,0,0,1.4,20.2c4.1,8.8,11.7,14.9,19.7,20,10.7,6.8,21.8,13,32.7,19.4,1.6,1,3.2-1.6,1.5-2.6-10.9-6.4-22-12.6-32.7-19.4s-19.1-14.3-20.6-26.2,4.5-18.9,12.8-25.4c4.4-3.4,12.6-9.1,9.6-15.8s-12.9-2.9-17.8.2a48.2,48.2,0,0,0-18,21.4c-8,18.1-3.9,36.9,10.9,49.8,5.1,4.4,11.1,7.6,16.8,11.1a233.1,233.1,0,0,1,22.1,15.1c1.5,1.2,3.6-.9,2.1-2.1Z" transform="translate(-116.6 -164.1)"/><path class="cls-1" d="M276,396.3a27.9,27.9,0,0,1,7.1,18.9,1.3,1.3,0,0,0,2.5,0,30.8,30.8,0,0,0-7.8-20.7c-1.1-1.2-2.8.5-1.8,1.8Z" transform="translate(-116.6 -164.1)"/><path class="cls-1" d="M284.7,416.9c22.1-7.9,43.8-16.1,65.5-25,16.8-6.8,34.3-15.6,52-19.4,4.1-.9,11.8-.6,13.8-5.3s-.8-8.6-2.4-12.3-3-8.5-6.9-10.3-10.9,2.5-15.4,5.1c-8.1,4.7-15.8,10.3-24.7,13.4l-23.7,8.1-66,22.7c-1.5.5-.8,2.9.7,2.4L330.7,378c13.6-4.7,27.8-8.5,41-14.1,4.5-1.8,8.6-4.8,12.8-7.3l10.5-6.1c4-2.4,9.2-6.4,13-1.6s4.5,8.9,5.6,13-.8,5.9-4.5,6.7-7.2,1.3-10.8,2.2c-15.8,4-31.3,11.6-46.4,17.8-22.5,9.1-45,17.7-67.9,25.9-1.5.5-.9,2.9.7,2.4Z" transform="translate(-116.6 -164.1)"/><path class="cls-1" d="M212.1,418.9a2.4,2.4,0,0,0-2.8-1.6,2.4,2.4,0,0,0-1.5,2.9,2.2,2.2,0,0,0,2.9,1.4,2.4,2.4,0,0,0,1.4-2.7.6.6,0,0,0-1.2.3c.2,1.2-1.4,1.9-1.9.6a1.1,1.1,0,0,1,.6-1.3,1.1,1.1,0,0,1,1.3.7A.6.6,0,1,0,212.1,418.9Z" transform="translate(-116.6 -164.1)"/><path class="cls-1" d="M214.5,424.5a1.9,1.9,0,0,0-1.4-2.3,2,2,0,0,0-2.5,1.4,1.7,1.7,0,0,0,1.5,2.3,2.5,2.5,0,0,0,1.5-.2,2.2,2.2,0,0,0,.9-1.2c.3-.8-.9-1.1-1.2-.3a.8.8,0,0,1-.8.5c-.5,0-.9-.3-.7-.8a1,1,0,0,1,.9-.6.8.8,0,0,1,.6.9C213.1,424.9,214.3,425.3,214.5,424.5Z" transform="translate(-116.6 -164.1)"/><path class="cls-1" d="M216.3,431.2a2.2,2.2,0,0,0-2,2.3,2,2,0,0,0,2.2,1.9,2.2,2.2,0,0,0,2-2.1,2.2,2.2,0,0,0-2.2-2.1c-.8,0-.8,1.2,0,1.3s.9.2.9.8a1,1,0,0,1-.7.9.9.9,0,1,1-.2-1.7C217.1,432.4,217.1,431.1,216.3,431.2Z" transform="translate(-116.6 -164.1)"/><path class="cls-1" d="M216.8,436.4a2.2,2.2,0,0,0-.8,2.8,2.1,2.1,0,0,0,3.7-1.9,2,2,0,0,0-1.1-1.1,1.9,1.9,0,0,0-1.8.2c-.7.3-.1,1.4.7,1a.8.8,0,0,1,1.1.5.8.8,0,0,1-.4,1.1c-1,.5-1.7-1-.7-1.6S217.5,436,216.8,436.4Z" transform="translate(-116.6 -164.1)"/><path class="cls-1" d="M216.6,429.3a2.1,2.1,0,0,0-1.5-2.6,2.2,2.2,0,0,0-2.6,1.6,2,2,0,0,0,1.6,2.4,2,2,0,0,0,2.5-1.3c.3-.7-.8-1.3-1.1-.6s-.4.8-.8.8-1-.3-1-.7a1.1,1.1,0,0,1,1-1,.8.8,0,0,1,.7,1C215.2,429.7,216.4,430,216.6,429.3Z" transform="translate(-116.6 -164.1)"/><path class="cls-1" d="M221.4,444a2.4,2.4,0,0,0-1.4-2.9,2.4,2.4,0,0,0-3,1.4,2.4,2.4,0,0,0,1.4,2.9,2.2,2.2,0,0,0,3-1.4c.3-.8-.9-1.1-1.2-.4s-2.6.4-1.9-.8a1,1,0,0,1,1.9.8C220,444.4,221.2,444.7,221.4,444Z" transform="translate(-116.6 -164.1)"/><path class="cls-1" d="M385.9,378.9c-1.4,1.1-2.8,2.6-1.7,4.4s3.4,1.4,5.1.9,3.6-1.5,3.4-3.5-2.1-2.3-3.7-2.4l.9.7-1.1-3a1.1,1.1,0,0,0-1.3-.7l-2.3.9a1.1,1.1,0,0,0-.7,1.2l.9,2.7a1,1,0,0,0,1.9-.6l-.8-2.6-.7,1.2,2.3-.9-1.3-.7,1.2,3a1.2,1.2,0,0,0,1,.8c.5,0,1.9-.1,1.7,1s-1.4.9-2,1a4,4,0,0,1-1.9.2c-1.5-.1-.7-1.3.1-1.8S386.9,378.2,385.9,378.9Z" transform="translate(-116.6 -164.1)"/><path class="cls-1" d="M377.9,355.9c1.1-1.3,2.1-3.3.5-4.7s-3.8-.3-5.3.6-2.9,2.3-2.4,4.1,2.9,1.7,4.4,1.4l-1.1-.4,2.2,3a1,1,0,0,0,1.4.3l2-1.4a1,1,0,0,0,.3-1.4l-1.8-2.7c-.7-1.1-2.4-.1-1.7,1l1.8,2.7.4-1.3-2,1.4,1.3.4-2.2-3a1,1,0,0,0-1.1-.5c-.6.1-2.1.4-1.8-.8s1-1,1.5-1.2a5.6,5.6,0,0,1,1.6-.7c1.7-.1,1.2,1.1.6,1.8S377.1,356.9,377.9,355.9Z" transform="translate(-116.6 -164.1)"/><path class="cls-1" d="M395.5,376.6c-1.4,1.1-2.9,3-1.4,4.7s3.9,1,5.5.4,2.9-1.5,2.7-3.1-1.9-2.6-3.7-2.6l1,.7c-.5-1.4-.8-2.8-1.3-4.2a1.1,1.1,0,0,0-1.3-.7l-2.3.7a1,1,0,0,0-.7,1.2l1.1,4.1a1,1,0,0,0,1.9-.6c-.4-1.3-.7-2.7-1-4l-.7,1.2,2.3-.7-1.3-.7c.5,1.4.9,2.8,1.4,4.2a1.1,1.1,0,0,0,.9.8c.5,0,1.7-.1,1.7.7s-1.1,1.1-1.5,1.2a3.8,3.8,0,0,1-1.8.3c-1.1-.1-1.5-1.1-.5-1.8S396.6,375.9,395.5,376.6Z" transform="translate(-116.6 -164.1)"/><path class="cls-1" d="M386.7,349.7c1-1.4,1.7-3.4,0-4.6s-3.7-.1-5.1.8-2.8,2.4-2.1,4.1,2.6,1.9,4.3,1.4l-1.1-.4,2.5,3.6c.3.4.8.7,1.3.3l2-1.3a1,1,0,0,0,.4-1.4c-.7-1.2-1.4-2.4-2.2-3.5s-2.5-.1-1.7,1l2.2,3.5.3-1.3-2,1.3,1.4.4c-.9-1.2-1.6-2.5-2.5-3.6a1.1,1.1,0,0,0-1.1-.5c-.9.2-2.6.4-1.6-1.1a3.1,3.1,0,0,1,1.3-1,4.6,4.6,0,0,1,1.6-.7c1.7-.3.9,1.3.4,2S385.9,350.7,386.7,349.7Z" transform="translate(-116.6 -164.1)"/><path class="cls-1" d="M405.8,374.2c-1.4.9-3.2,2.2-2.2,4.1s3.6,1.6,5.3,1.3,4.1-1.2,4-3.2-2.1-2.8-3.8-2.9l.9.7c-.5-1.4-.8-2.8-1.4-4.2a1,1,0,0,0-1.2-.7l-2.4.7a.9.9,0,0,0-.7,1.2c.3,1.4.6,2.8,1,4.1s2.4.7,2-.5a31.1,31.1,0,0,1-1.1-4.1l-.7,1.2,2.4-.6-1.2-.7c.5,1.3.9,2.8,1.4,4.2a1.1,1.1,0,0,0,1,.7c.7,0,2.1.1,1.7,1.2s-1.6.8-2.1.9-2.1.5-2.6.2.3-1.6.7-1.9S406.9,373.5,405.8,374.2Z" transform="translate(-116.6 -164.1)"/><path class="cls-1" d="M395.8,344.9c1.2-1.1,2.6-2.8,1.2-4.5s-3.8-1-5.4-.2-3.8,2-3.3,4,2.7,2.3,4.4,2l-1.1-.4c.7,1.2,1.3,2.5,2.1,3.7a1,1,0,0,0,1.3.3l2.2-1.4a1,1,0,0,0,.3-1.4c-.5-1.1-1-2.2-1.6-3.3s-2.3-.1-1.7,1,1.1,2.2,1.6,3.3l.4-1.3-2.2,1.4,1.4.3c-.8-1.1-1.3-2.4-2.1-3.6a1,1,0,0,0-1.1-.5h-1.1c-.8-.7-.8-1.2-.1-1.6l1.7-.9c.5-.2,1.8-.8,2.3-.4s-.1,1.5-.6,2S394.8,345.8,395.8,344.9Z" transform="translate(-116.6 -164.1)"/><path class="cls-1" d="M371.2,363.1l6.7,14.6c.7,1.5,2.9.2,2.2-1.3l-6.7-14.5c-.7-1.5-2.9-.2-2.2,1.2Z" transform="translate(-116.6 -164.1)"/><path class="cls-1" d="M367.2,364.8c2.1,5.1,4.4,10.1,7,15,.6,1.2,2.3.2,1.7-1a159.1,159.1,0,0,1-6.8-14.5c-.5-1.2-2.4-.7-1.9.5Z" transform="translate(-116.6 -164.1)"/><path class="cls-1" d="M363.7,365.5c2.2,5.4,4.6,10.7,7.3,15.9.6,1.2,2.3.2,1.7-1-2.6-5-4.9-10.2-7.1-15.4-.4-1.2-2.4-.7-1.9.5Z" transform="translate(-116.6 -164.1)"/><path class="cls-1" d="M400.2,350a3.6,3.6,0,1,0,0,7.1,3.5,3.5,0,0,0,3.6-3.4c.1-2.1-1.5-3.5-3.6-3.7a.8.8,0,0,0,0,1.5,2.1,2.1,0,0,1,2.1,2.1,2,2,0,0,1-2.1,2,2.1,2.1,0,1,1,0-4.1A.7.7,0,1,0,400.2,350Z" transform="translate(-116.6 -164.1)"/><path class="cls-1" d="M404.8,359.6a3.9,3.9,0,0,0-4.2,3.1,3.8,3.8,0,1,0,7.5,1.1,3.6,3.6,0,0,0-3.1-4.2c-.9-.2-1.3,1.3-.4,1.5a2.3,2.3,0,0,1,2.1,2.1,2.5,2.5,0,0,1-3,2.3,2.3,2.3,0,0,1-1.5-2.9,2.6,2.6,0,0,1,2.6-1.5C405.8,361.2,405.8,359.7,404.8,359.6Z" transform="translate(-116.6 -164.1)"/><path class="cls-1" d="M389.8,355.2a3.5,3.5,0,0,0-.8,4.7c1,1.6,3.2,1.7,4.7.9a3.2,3.2,0,0,0,1.3-4.5c-1-1.9-3.5-2.1-5.2-1.1s-.1,1.7.8,1.3,2.6-.6,3.1.5a1.7,1.7,0,0,1-.8,2.5c-.8.4-2.1.5-2.6-.3a1.9,1.9,0,0,1,.3-2.7C391.4,355.9,390.6,354.6,389.8,355.2Z" transform="translate(-116.6 -164.1)"/><path class="cls-1" d="M393.7,363.4c-1.5.6-2.7,2.8-2,4.4a3.5,3.5,0,0,0,6.6-2.3c-.6-2.1-2.6-2.6-4.6-2.1a.8.8,0,0,0,.4,1.5c1.1-.3,2.3-.3,2.7.9a1.7,1.7,0,0,1-.8,2.3,1.9,1.9,0,0,1-2.7-.5,2,2,0,0,1,.8-2.7C395,364.5,394.6,363.1,393.7,363.4Z" transform="translate(-116.6 -164.1)"/><path class="cls-1" d="M381.6,359.3a3.5,3.5,0,0,0-1.3,4.4,3.3,3.3,0,0,0,4.5,1.2,3.5,3.5,0,0,0,1.3-4.4c-.8-1.6-3-1.9-4.5-1.2s-.1,1.7.8,1.3a2.1,2.1,0,0,1,2.4.5,2.3,2.3,0,0,1-.7,2.5,1.9,1.9,0,0,1-2.5-.6,2.1,2.1,0,0,1,.8-2.4C383.2,360.1,382.4,358.8,381.6,359.3Z" transform="translate(-116.6 -164.1)"/><path class="cls-1" d="M388.8,367.5a3.5,3.5,0,0,0-4.5-1.1,3.6,3.6,0,0,0-1.3,4.4,3.3,3.3,0,0,0,4.3,1.5,3.5,3.5,0,0,0,1.5-4.8c-.4-.9-1.7-.1-1.3.7a1.9,1.9,0,0,1-.8,2.7,1.7,1.7,0,0,1-2.4-1,1.8,1.8,0,0,1,.7-2.1,1.9,1.9,0,0,1,2.5.4C388.1,369,389.4,368.3,388.8,367.5Z" transform="translate(-116.6 -164.1)"/><path class="cls-1" d="M368.6,366.9c2.8.8,6,.4,8.8.1s5.9-.4,7.8-2.5-.4-1.8-1.1-1.1-5.7,2.1-8.2,2.2-4.7.5-6.9-.1-1.3,1.2-.4,1.4Z" transform="translate(-116.6 -164.1)"/><path class="cls-1" d="M384.3,366.5c-4.8,2.5-7.7,5.9-10.4,10.5-.5.8.8,1.6,1.3.8,2.6-4.4,5.3-7.6,9.9-10,.9-.4.1-1.7-.8-1.3Z" transform="translate(-116.6 -164.1)"/><path class="cls-1" d="M393.5,359.2a53.8,53.8,0,0,1-23.6,8.5c-1,.1-1,1.6,0,1.5a54.4,54.4,0,0,0,24.3-8.7c.8-.5.1-1.8-.7-1.3Z" transform="translate(-116.6 -164.1)"/><path class="cls-1" d="M373.7,375.4a37.9,37.9,0,0,1,9.3-6.7c3.7-1.9,7.5-4.2,11.7-4.4a.8.8,0,0,0,0-1.5c-4.3.2-7.6,2.3-11.4,4.1a41.2,41.2,0,0,0-10.6,7.4c-.7.6.3,1.7,1,1.1Z" transform="translate(-116.6 -164.1)"/><path class="cls-1" d="M372.2,373.2c10.2-4.7,20.7-9.7,31.8-11.9.9-.2.5-1.7-.4-1.5-11.2,2.3-21.8,7.4-32.1,12.1-.9.4-.2,1.7.7,1.3Z" transform="translate(-116.6 -164.1)"/><path class="cls-1" d="M401.9,354.9c-4.7,3.4-10,5.7-15.3,8.3s-10.2,5-15.6,6.4a.7.7,0,1,0,.4,1.4c5.2-1.3,10.1-3.7,14.9-6s11.4-5.2,16.4-8.9c.8-.5,0-1.8-.8-1.2Z" transform="translate(-116.6 -164.1)"/><path class="cls-1" d="M368.6,365.5c-12.8,4.8-25.6,9.5-38.6,13.7s-26.1,9.4-39.3,13.7S265.8,402,253.1,406c-6.5,2-13.1,3.2-19.7,4.8s-13.1,4.2-19.6,6.3a.7.7,0,1,0,.4,1.4c6.2-2,12.4-4.4,18.8-6.1s13.2-2.8,19.7-4.7c13-4,25.5-9.2,38.4-13.4s25.5-9.3,38.4-13.4,26.5-9,39.5-14c.9-.3.5-1.8-.4-1.4Z" transform="translate(-116.6 -164.1)"/><path class="cls-1" d="M369.7,367.7c-25.9,8.8-51.1,19.2-77.1,27.4-13.1,4.2-25.6,9.7-38.8,13.7S228,415.3,216,421.2c-.9.4-.1,1.7.7,1.3,12.5-6.1,26.1-8.7,39.2-12.8s25.8-9.5,38.8-13.7c25.4-8.2,50.1-18.2,75.4-26.8.9-.3.5-1.8-.4-1.5Z" transform="translate(-116.6 -164.1)"/><path class="cls-1" d="M219.2,427.4c11.3-6.1,23.5-10.5,35.6-14.6,10.3-3.5,20.3-7.6,30.6-11.1,6-2,12.2-3.5,18.2-5.6s14.3-5.4,21.5-8.2c14.8-5.9,29.9-10.9,45-16.1.9-.3.5-1.8-.4-1.5-15.1,5.2-30.2,10.2-45,16.1-7.1,2.8-14.2,5.8-21.5,8.3s-13,3.7-19.3,6c-10.5,3.7-20.9,7.6-31.5,11.3s-23.2,8.3-34,14.1a.8.8,0,0,0,.8,1.3Z" transform="translate(-116.6 -164.1)"/><path class="cls-1" d="M371.5,371.8c-17.5,6.8-35.7,11.7-52.7,19.4-11.2,5-23.4,6.9-34.5,11.9-5.3,2.3-10.4,5.1-15.7,7.5s-9.2,3.5-13.7,5.3c-11.7,4.5-23.4,9.2-34.6,14.7a.7.7,0,1,0,.7,1.3c11.8-5.8,24.1-10.7,36.4-15.4,9.2-3.5,17.8-7.6,26.7-11.7,10.5-4.8,22.2-6.5,32.8-11.1,18-7.9,36.7-13.4,55-20.4.8-.4.5-1.8-.4-1.5Z" transform="translate(-116.6 -164.1)"/><path class="cls-1" d="M373,374.1c-26.8,9-52.8,20.5-79.5,30-10.1,3.7-20.2,7.1-30.2,11a273.8,273.8,0,0,0-41.5,21c-.8.5,0,1.8.8,1.2a268.7,268.7,0,0,1,44.3-22c9.3-3.5,18.7-6.7,28.1-10.1,26.3-9.5,51.9-20.7,78.4-29.7.9-.3.5-1.7-.4-1.4Z" transform="translate(-116.6 -164.1)"/><path class="cls-1" d="M224.1,441.3c11.4-8.7,24-13.6,37.4-18.5,6.3-2.2,12.3-5.4,18.5-8s13.8-5.2,20.8-7.7c11.4-4.2,22.1-10.2,33.5-14.2,13.4-4.7,26.8-9.4,40.1-14.5.9-.3.5-1.8-.4-1.4-13.5,5.1-27.2,9.9-40.9,14.7-11.7,4.1-22.6,10.3-34.3,14.5-6,2.1-12,4.1-17.9,6.6s-14.1,6.6-21.5,9.2c-12.9,4.5-25,9.6-36.1,18-.7.5,0,1.8.8,1.3Z" transform="translate(-116.6 -164.1)"/><path class="cls-2" d="M302.8,409.1l18.3-6.6a16.8,16.8,0,0,0,6.1-4.4c3.3-3.6,1.3-8.6,3.8-12.8a7.9,7.9,0,0,1,3.2-3.1c1.2-.4,2.6.8,3.3,1.8,1.1-1.5,2.7-4,4.6-4.3s3.8,1.2,4.1,3.7a4.1,4.1,0,0,1,5.5-2c1.9.9,2.9,8.3,1.9,10.7-2.1,4.8-3.8,9.5-7.5,13.2a75.1,75.1,0,0,1-8,5.8c-1.1.6-6.4,3.6-7.5,4.1s-12.2,5.2-16,6.6-9,2.2-13.3,3.9a18.9,18.9,0,0,0,1.9-7.5A64.7,64.7,0,0,0,302.8,409.1Z" transform="translate(-116.6 -164.1)"/><path class="cls-1" d="M303.2,410.5c7.3-2.6,16.7-4.3,22.9-9.3a12.5,12.5,0,0,0,4.4-6.2c.5-2,1.5-14.9,5.9-9.9a1.6,1.6,0,0,0,2.4-.3c.8-1.2,4.4-6.7,6-1a1.5,1.5,0,0,0,2.7.3c3.7-5.3,4.7,1.6,4.9,3.2a12.2,12.2,0,0,1-.7,5.4,33.8,33.8,0,0,1-5.6,10.4c-3.4,3.9-8.5,6.6-13,9a119.9,119.9,0,0,1-13.7,6.2c-6.1,2.5-12.3,3.8-18.5,6l1.7,2.2c2.7-5.5,2.3-11.6,1.7-17.4-.2-1.9-3.2-2-3,0,.5,5.2,1.1,11-1.3,15.8-.5,1.1.4,2.7,1.7,2.2,4.6-1.6,9.5-2.4,14-4.1s7.8-3.2,11.7-4.8a80.2,80.2,0,0,0,17.1-9.7c5.8-4.4,11.4-13,10.9-20.6-.1-2.5-.5-6.2-2.8-7.7s-6,0-7.7,2.4l2.8.4c-.7-2.5-2.2-4.8-5.1-4.8s-4.9,2.9-6.4,5.1l2.4-.3c-4.8-5.4-9.4.7-10.3,5.8-.3,1.8-.3,3.6-.7,5.4-1,3.4-4.2,5.6-7.3,7-5.8,2.5-12,4.3-17.9,6.4C300.6,408.3,301.3,411.2,303.2,410.5Z" transform="translate(-116.6 -164.1)"/><path class="cls-1" d="M337.9,386.8c.9-1.3,2.1-4.6,3.7-5.2s3.6,3.7,3.6,5.2,3.1,1.9,3,0-1.6-7.7-5.3-8.3-5.9,4.1-7.6,6.8a1.5,1.5,0,0,0,2.6,1.5Z" transform="translate(-116.6 -164.1)"/><circle class="cls-1" cx="130.7" cy="211.1" r="1.2"/><circle class="cls-1" cx="129.2" cy="206.6" r="1.2"/><circle class="cls-1" cx="108.1" cy="203.2" r="1.2"/><circle class="cls-1" cx="109.8" cy="207.7" r="1.2"/><circle class="cls-1" cx="109.8" cy="207.7" r="1.2"/><circle class="cls-1" cx="104.8" cy="206.7" r="1.2"/><circle class="cls-1" cx="125.9" cy="210.1" r="1.2"/></g><g id="Hat"><path class="cls-1" d="M336.6,529.7c-11.1,6.9,18.5,15.2,21.7,15.8a65.8,65.8,0,0,0,23.4.9c4.6-.6,12.7-1.5,15.4-5.9,6.1-9.9-16.9-11.9-22.3-12.5a179.7,179.7,0,0,0-19.4-.7c-6.1.1-12.8-.1-18.5,2.3-1.5.6-.8,3,.7,2.4,7.6-3.2,17.5-2.3,25.6-2.2a101.3,101.3,0,0,1,26.3,3.8c2.2.6,6.3,1.3,6,4.4s-5.9,4.2-8.2,4.8a61.4,61.4,0,0,1-17.1,1.7,72.2,72.2,0,0,1-17.9-3.1c-2.5-.8-5-1.8-7.5-2.8-.7-.3-10.6-4.5-6.9-6.7C339.2,531,338,528.8,336.6,529.7Z" transform="translate(-116.6 -164.1)"/><path class="cls-1" d="M325.2,518.2c-6.6,2.7-14.8,6.9-17.1,14.2s4.1,15.6,10.1,20.2C335.9,566,360.7,565,381.7,563a88.1,88.1,0,0,0,27.5-7.7c6.3-2.9,13.7-7.5,16.3-14.3s-2.7-13.7-7.9-17-15.5-6.3-23-7.9c-22.1-4.7-48-6-69.4,2.1-1.5.6-.8,3,.7,2.4,16.4-6.2,34.8-6.2,52.1-4.4a129.5,129.5,0,0,1,21.4,3.7c6.3,1.7,14.3,3.4,19.1,8.1s6.7,8.2,4.3,13-5.6,6.9-8.9,9c-5.9,3.8-13,6.2-19.7,8.1-9.1,2.5-18.7,3.1-28.1,3.3s-17.6.1-26.2-1.8S320.3,553,314,545.2c-9.5-11.5,1.5-20.3,11.9-24.6C327.3,520,326.7,517.6,325.2,518.2Z" transform="translate(-116.6 -164.1)"/><path class="cls-1" d="M399.2,558.2c-2.8,9.2-5.4,18.4-8.3,27.6-.8,2.6-.5,3.1-3.3,3.8s-6.3,1.4-9.4,2c-6.7,1.1-13.2.9-19.9.5s-13.8-.8-20.1-3.6c-2.5-1.2-2.1-2.3-2.5-5-1.1-8-2.2-16.1-3-24.2-.2-1.6-2.7-1.6-2.5,0,.9,8.8,2.1,17.7,3.3,26.5.5,3.3,1.4,3.9,4.9,5.5,5.5,2.4,12,2.7,18,3.2s13.7.8,20.6-.2c3.8-.6,7.5-1.4,11.3-2.3,1.1-.3,2.8-.5,3.7-1.5s1.2-3.7,1.7-5.2,1.5-5.1,2.3-7.7c1.9-6.3,3.7-12.5,5.6-18.7.5-1.6-1.9-2.2-2.4-.7Z" transform="translate(-116.6 -164.1)"/></g><g id="Speech-Bubble"><path class="cls-1" d="M486.2,231.1c9.3-20.3,5.3-44.7-16.4-54.5a124.8,124.8,0,0,0-34.2-10.2c-12.5-1.7-25.2-1.9-37.8-2.2-23-.5-46.2.8-67.4,10.5-18,8.3-37.4,24-33.8,46.3s29.3,33.8,50,34.9l-1.5-1.5c.1,10.8-6.7,20.3-12.9,28.6a1.5,1.5,0,0,0,1.3,2.3,49.1,49.1,0,0,0,34.7-19,40.7,40.7,0,0,0,3.3-4.8c1.2-2,1.1-2.8,3.6-2.7s6.1,1,9,1.4a190.9,190.9,0,0,0,23.9,1.9c27.4.7,64.3-3.4,78.2-31,.9-1.7-1.7-3.2-2.6-1.5-10.6,21.1-35.9,27.2-57.6,29.1-18.2,1.6-35.8-1.2-53.8-3.3a1.4,1.4,0,0,0-1.3.7,46.2,46.2,0,0,1-37.4,26.2l1.3,2.2c6.5-8.7,13.4-18.7,13.3-30.1a1.6,1.6,0,0,0-1.5-1.5c-18.2-1-40-9.4-46.1-28.2-7.1-22.2,13.3-39,31-47.2s38.3-10.5,58.3-10.4,43.4-.2,63.5,6.5c11.4,3.8,23.6,7.6,30.2,18.5s5.6,25.6.1,37.5C482.8,231.3,485.4,232.8,486.2,231.1Z" transform="translate(-116.6 -164.1)"/><path class="cls-3" d="M364.2,207a24.7,24.7,0,0,0-.3-3.9,3.2,3.2,0,0,0-2.8-2.1,3.8,3.8,0,0,0-3.8,1.9,6.8,6.8,0,0,0-.7,3.3,7.7,7.7,0,0,0,2.6,4.5c1.2,1.1,2.6,2.1,3.3,3.6a18.3,18.3,0,0,1,.6,2.5,17,17,0,0,1,0,4.5c-.3,1.5-.7,2.8-2,3.6s-3.4,1-4.6.4-2.1-4.1-2.2-5.4" transform="translate(-116.6 -164.1)"/><path class="cls-4" d="M371.8,203.3c-2.3,4.6-2.6,11.6-2.2,16.3.2,1.5.3,3.2,1.2,4.4a3.6,3.6,0,0,0,5.2.8c3-2,3.1-8,3.1-11.5s.2-9.1-2.3-11.7C376,200.8,373.3,200.4,371.8,203.3Z" transform="translate(-116.6 -164.1)"/><path class="cls-1" d="M383.5,200.8c0,8.4,0,16.8-.1,25.1a1.5,1.5,0,0,0,3,0c.1-8.3.1-16.7.1-25.1a1.5,1.5,0,1,0-3,0Z" transform="translate(-116.6 -164.1)"/><path class="cls-1" d="M385,202.3c3.1-.4,6.9.6,7.1,4.4s-2.6,8.8-6.7,8c-1.9-.3-2.7,2.6-.8,2.9,5.9,1.1,10.2-4.4,10.5-9.9s-4.8-9-10.1-8.4c-1.9.2-2,3.2,0,3Z" transform="translate(-116.6 -164.1)"/><path class="cls-1" d="M388.2,215.9c1.4,3.4,2.7,6.9,3.8,10.4.6,1.8,3.5,1.1,2.9-.8-1.1-3.5-2.4-7-3.8-10.4-.7-1.8-3.6-1-2.9.8Z" transform="translate(-116.6 -164.1)"/><path class="cls-1" d="M397.5,201.3c.1,8.2.3,16.4.4,24.6a1.5,1.5,0,0,0,3,0c-.1-8.2-.3-16.4-.4-24.6a1.5,1.5,0,0,0-3,0Z" transform="translate(-116.6 -164.1)"/><path class="cls-1" d="M399.4,202.8c3.8-1.4,7.3,1.2,6.1,5.4s-3.6,4.9-6.5,5.7-1,3.4.8,2.9c4.9-1.3,9.3-5.4,8.9-10.7s-5.4-7.9-10.1-6.2c-1.8.6-1,3.5.8,2.9Z" transform="translate(-116.6 -164.1)"/><path class="cls-1" d="M402.2,214.5c1.9,4.1,3.9,8.1,5.9,12.2.8,1.7,3.4.2,2.6-1.6-2-4-4-8-5.9-12.1-.8-1.7-3.4-.2-2.6,1.5Z" transform="translate(-116.6 -164.1)"/><path class="cls-1" d="M409.5,201.7c2.1,3.7,4,7.6,6.3,11.2a1.5,1.5,0,0,0,2.4.3c2.9-3.7,5.6-7.6,8.4-11.4,1.2-1.6-1.4-3.1-2.5-1.5-2.7,3.6-5.2,7.3-8.1,10.8l2.4.3c-2.3-3.7-4.2-7.5-6.4-11.2-.9-1.7-3.5-.2-2.5,1.5Z" transform="translate(-116.6 -164.1)"/><path class="cls-1" d="M415.6,212.2c0,4.5,0,9.1-.1,13.7-.1,1.9,2.9,1.9,3,0,.1-4.6.1-9.2.1-13.7a1.5,1.5,0,1,0-3,0Z" transform="translate(-116.6 -164.1)"/><path class="cls-1" d="M451.9,201.1a145.7,145.7,0,0,1-1.6,16.2,8.8,8.8,0,0,1-.7,3.2l-.4,1.5-1.6-1.2c-.1-.6,4.2-3.4,5-4.3s-.6-2.9-1.7-1.8-7.3,4.7-7.1,8.6a3.7,3.7,0,0,0,4.6,3.4c3.3-.8,3.8-6,4.3-8.7,1.1-5.6,1.3-11.3,1.7-16.9.1-1.6-2.4-1.6-2.5,0Z" transform="translate(-116.6 -164.1)"/><path class="cls-1" d="M451.7,215.6c-1.5,1.8-2.5,1.8-4.1,3.4a12.3,12.3,0,0,0-2.4,3.1,2.8,2.8,0,0,0,.9,3.1,2.6,2.6,0,0,0,3-.2,6.2,6.2,0,0,0,1.3-2.7Z" transform="translate(-116.6 -164.1)"/><path class="cls-1" d="M450.9,214.7c-2.2,2.4-5.8,3.8-6.9,7.1a3.8,3.8,0,0,0,4.5,4.9c3.7-.9,3.8-7.7,4.4-10.8.3-1.5-2.1-2.2-2.4-.6s-.7,4.4-1.2,6.5-.6,2.2-1.5,2.4c-2.7.8-.8-2.6-.2-3.3s3.5-2.7,5-4.4S451.9,213.5,450.9,214.7Z" transform="translate(-116.6 -164.1)"/><path class="cls-1" d="M465.6,201c-.1,3.6-.3,7.1-.5,10.6s-.4,5.3-.7,8a25.1,25.1,0,0,1-.4,2.7l-1.4-1.2c.2-1.1,3.2-3.1,4.1-3.8s-.6-2.9-1.8-1.8-8.2,6-6,10,5.1,1.6,6.6-.6,1.8-9.5,2.1-13.3.4-7,.5-10.6a1.3,1.3,0,0,0-2.5,0Z" transform="translate(-116.6 -164.1)"/><path class="cls-1" d="M465.2,222.7a5.1,5.1,0,0,1-2.1,2.9c-.9.6-2.7.3-3.1-.8a3.6,3.6,0,0,1,.8-3.7l5-4.7Z" transform="translate(-116.6 -164.1)"/><path class="cls-1" d="M464,222.3c-.2.9-1,2.4-2,2.4s-.8-2.2-.1-2.9,3.2-3,4.8-4.5l-2.2-.9-.5,6.3c-.2,1.6,2.3,1.5,2.5,0l.5-6.3a1.2,1.2,0,0,0-2.1-.9c-2.4,2.2-8.4,6.1-5.9,10.1s6.7.3,7.4-2.6A1.3,1.3,0,0,0,464,222.3Z" transform="translate(-116.6 -164.1)"/><path class="cls-1" d="M453.3,202.3c4.5-.2,9-.1,13.5,0a1.3,1.3,0,0,0,0-2.5c-4.5-.1-9-.2-13.5,0-1.6,0-1.6,2.6,0,2.5Z" transform="translate(-116.6 -164.1)"/><path class="cls-1" d="M430.4,200.7q-.6,9.3-.9,18.6a1.5,1.5,0,0,0,3,0q.3-9.3.9-18.6c.1-2-2.9-1.9-3,0Z" transform="translate(-116.6 -164.1)"/><path class="cls-1" d="M431,227.1a1.9,1.9,0,0,0,0-3.7,1.9,1.9,0,0,0,0,3.7Z" transform="translate(-116.6 -164.1)"/><path class="cls-1" d="M323.8,201a97.6,97.6,0,0,1-1,17.1,18.7,18.7,0,0,1-.8,3.4l-.7,1.8c-1.7-.8-2.1-1.5-1.1-2.1s4-3.6,5-4.4-.6-2.8-1.8-1.8-7.4,5-7.2,8.5a3.6,3.6,0,0,0,4.9,3.2c3.1-1.3,3.7-5.9,4.2-8.7a96.5,96.5,0,0,0,1-17,1.3,1.3,0,0,0-2.5,0Z" transform="translate(-116.6 -164.1)"/><path class="cls-1" d="M323.2,221.8a7.7,7.7,0,0,1-1.5,3,2.5,2.5,0,0,1-2.9.7,2.3,2.3,0,0,1-1.2-3.1c.5-1.4,2-2.2,3-3.1l3.7-3.4Z" transform="translate(-116.6 -164.1)"/><path class="cls-1" d="M322,221.5c-.3.8-1.8,4.6-3.2,2.5s1.1-2.5,1.9-3.2,3-2.7,4.5-4l-2.1-1.2-1.1,5.9c-.3,1.6,2.1,2.2,2.4.7l1.1-6a1.3,1.3,0,0,0-2.1-1.2l-5,4.4c-1.5,1.3-2.8,3.1-2.1,5.2a3.8,3.8,0,0,0,4.3,2.3c2.2-.7,3.2-2.8,3.8-4.7S322.5,220,322,221.5Z" transform="translate(-116.6 -164.1)"/><path class="cls-1" d="M325.1,202.3c4.4-.1,8.8,0,13.2.2,1.6.1,1.6-2.4,0-2.5-4.4-.2-8.8-.3-13.2-.2a1.3,1.3,0,1,0,0,2.5Z" transform="translate(-116.6 -164.1)"/><path class="cls-1" d="M337,201.2c.2,5.2,0,10.3-.3,15.4a12.7,12.7,0,0,1-.2,2.8c-.2,1.5.1,1.5-1.1,2.2,1.5-.9,2.9-3.7,3.6-5.1s-1.4-2.7-2.2-1.2-6.4,6.3-5.1,9.7a3.1,3.1,0,0,0,4.6,1.7c2.7-1.4,2.6-5.4,2.8-7.9a172.3,172.3,0,0,0,.4-17.6,1.3,1.3,0,0,0-2.5,0Z" transform="translate(-116.6 -164.1)"/><path class="cls-1" d="M337.6,221.3a6.1,6.1,0,0,1-1.2,3.7c-.8,1-2.5,1.3-3.3.3a2.3,2.3,0,0,1-.1-2.5,8,8,0,0,1,1.5-2.1,17.5,17.5,0,0,0,3.4-4.8Z" transform="translate(-116.6 -164.1)"/><path class="cls-1" d="M336.4,221.3c-.1.8-.4,3.3-1.5,3.3s-.4-1.9-.2-2.2l.9-1.1a23.2,23.2,0,0,0,3.4-4.8l-2.3-.6-.3,5.4c-.1,1.6,2.4,1.6,2.5,0l.3-5.4a1.3,1.3,0,0,0-2.4-.6c-1,2.2-2.7,3.8-4.2,5.7s-1.7,3.5-.5,5.1a3.4,3.4,0,0,0,4.4.5c1.8-1.1,2.2-3.3,2.4-5.3S336.5,219.7,336.4,221.3Z" transform="translate(-116.6 -164.1)"/></g></svg>