<?xml version="1.0" encoding="UTF-8" standalone="no"?>
<!DOCTYPE svg PUBLIC "-//W3C//DTD SVG 1.1//EN" "http://www.w3.org/Graphics/SVG/1.1/DTD/svg11.dtd">
<svg width="100%" height="100%" viewBox="0 0 500 500" version="1.1" xmlns="http://www.w3.org/2000/svg" xmlns:xlink="http://www.w3.org/1999/xlink" xml:space="preserve" xmlns:serif="http://www.serif.com/" style="fill-rule:evenodd;clip-rule:evenodd;stroke-linejoin:round;stroke-miterlimit:2;">
    <g transform="matrix(0.309868,0,0,0.340495,-4.83093,-7.91406)">
        <rect x="-7" y="-12" width="1662" height="1536" style="fill:white;"/>
    </g>
    <g transform="matrix(0.421276,0,0,0.421276,-99.9147,-39.1836)">
        <path d="M1284.88,720.956L1293.94,703.145L1284.85,685.352C1284.85,685.352 1261.55,639.815 1244.05,602.86C1225.86,564.456 1185.26,493.041 1134.29,440.042C1081.71,385.372 975.905,299.704 821.122,298.938C658.376,298.133 563.885,382.795 489.225,470.415C440.359,527.762 361.118,654.557 349.95,684.147L345.142,696.884L349.272,709.857C378.035,800.218 476.171,908.79 532.865,963.26C600.196,1027.95 699.192,1080.63 829.126,1076.8C940.919,1073.49 1060.93,1020.87 1160.58,912.464C1226.14,841.154 1269.14,751.859 1284.88,720.956ZM1206.09,703.24C1187.6,739.722 1152.6,805.408 1102.92,859.45C1019.64,950.033 920.227,995.735 826.812,998.495C721.713,1001.6 641.597,959.097 587.136,906.773C540.246,861.722 459.097,775.9 428.834,699.802C449.054,660.723 510.045,566.758 548.848,521.22C610.331,449.065 686.713,376.607 820.735,377.27C948.032,377.9 1034.59,449.379 1077.83,494.341C1122.25,540.53 1157.4,602.923 1173.26,636.393C1184.26,659.628 1197.5,686.171 1206.09,703.24Z"/>
        <path d="M683.891,680.051C684.653,757.935 751.648,809.49 818.028,808.462C899.318,807.204 946.129,747.808 946.925,673.961C947.675,604.445 890.673,543.197 816.017,545.202C737.287,547.317 683.138,603.16 683.891,680.051Z"/>
        <path d="M663.715,680.249C664.594,770.134 741.732,829.823 818.341,828.637C911.915,827.188 966.185,759.186 967.101,674.179C967.969,593.658 901.949,522.71 815.476,525.033C724.948,527.464 662.849,591.836 663.715,680.248L663.715,680.249ZM704.066,679.853C703.427,614.484 749.626,567.169 816.559,565.372C879.397,563.684 927.381,615.232 926.75,673.744C926.074,736.432 886.722,787.219 817.716,788.288C761.564,789.157 704.711,745.737 704.066,679.854L704.066,679.853Z"/>
        <g transform="matrix(1.24678,0,0,1.10128,-181.38,-3.0468)">
            <path d="M1017.55,231.025L956.772,325.453C946.561,341.317 949.647,363.581 963.659,375.142C977.671,386.702 997.337,383.208 1007.55,367.345L1068.33,272.916C1078.54,257.053 1075.46,234.788 1061.44,223.228C1047.43,211.668 1027.77,215.161 1017.55,231.025Z"/>
        </g>
        <g transform="matrix(1,0,0,1,2,0)">
            <path d="M782.206,182.37L782.376,327.11C782.402,348.727 799.973,366.256 821.589,366.231C843.206,366.205 860.735,348.634 860.71,327.018L860.539,182.278C860.513,160.661 842.943,143.132 821.326,143.157C799.709,143.183 782.18,160.753 782.206,182.37Z"/>
        </g>
        <g transform="matrix(1,0,0,1,-27.505,12.2525)">
            <path d="M525.542,281.473L615.242,396.787C628.514,413.849 653.142,416.926 670.205,403.654C687.267,390.382 690.344,365.754 677.072,348.691L587.372,233.377C574.1,216.315 549.472,213.238 532.409,226.51C515.347,239.783 512.27,264.411 525.542,281.473Z"/>
        </g>
        <g transform="matrix(1,0,0,1,-6.24243,10.3737)">
            <path d="M400.46,957.739C420.269,940.948 492.148,871.313 492.148,871.313C507.666,856.264 508.047,831.448 492.998,815.93C477.949,800.412 453.132,800.031 437.614,815.08C437.614,815.08 368.794,881.892 349.809,897.984C333.319,911.962 331.28,936.697 345.257,953.187C359.235,969.677 383.97,971.716 400.46,957.739Z"/>
        </g>
        <path d="M578.077,1124.22L647.654,1024.86C660.053,1007.15 655.743,982.707 638.036,970.308C620.329,957.909 595.886,962.218 583.487,979.925L513.911,1079.29C501.512,1097 505.821,1121.44 523.529,1133.84C541.236,1146.24 565.678,1141.93 578.077,1124.22Z"/>
        <path d="M859.69,1190.48L859.386,1063.74C859.334,1042.12 841.742,1024.61 820.125,1024.67C798.509,1024.72 781.001,1042.31 781.053,1063.93L781.356,1190.66C781.408,1212.28 799,1229.79 820.617,1229.74C842.234,1229.68 859.741,1212.09 859.69,1190.48Z"/>
        <g transform="matrix(1,0,0,1,34.2424,-5.12121)">
            <path d="M967.108,1019.85L1046.38,1128.57C1059.12,1146.04 1083.64,1149.88 1101.11,1137.14C1118.57,1124.41 1122.41,1099.89 1109.68,1082.42L1030.4,973.701C1017.67,956.235 993.146,952.394 975.679,965.13C958.213,977.866 954.372,1002.39 967.108,1019.85Z"/>
        </g>
        <g transform="matrix(1,0,0,1,35.3636,-18)">
            <path d="M1133.48,887.101L1238.32,987.625C1253.92,1002.59 1278.73,1002.07 1293.69,986.462C1308.65,970.859 1308.13,946.045 1292.53,931.084L1187.69,830.559C1172.09,815.599 1147.27,816.12 1132.31,831.723C1117.35,847.326 1117.87,872.14 1133.48,887.101Z"/>
        </g>
        <g transform="matrix(1.16404,0,0,1.10406,-213.074,-134.174)">
            <path d="M1228.4,677.418C1253.45,664.475 1332.02,616.771 1346.61,607.582C1362.55,597.542 1367.77,575.744 1358.24,558.935C1348.72,542.126 1328.05,536.63 1312.1,546.67C1298.11,555.482 1222.8,601.297 1198.78,613.708C1182.11,622.325 1175.2,643.595 1183.38,661.176C1191.55,678.757 1211.73,686.035 1228.4,677.418Z"/>
        </g>
        <g transform="matrix(1,0,0,1,31,-46)">
            <path d="M442.996,580.432L337.244,506.759C319.507,494.403 295.075,498.771 282.718,516.508C270.362,534.245 274.73,558.677 292.467,571.034L398.22,644.706C415.957,657.062 440.389,652.694 452.745,634.957C465.101,617.22 460.733,592.788 442.996,580.432Z"/>
        </g>
    </g>
</svg>
