<svg id="Ebene_1" data-name="Ebene 1" xmlns="http://www.w3.org/2000/svg" viewBox="0 0 499 499"><defs><style>.cls-1{fill:#fff;}.cls-2{fill:red;}.cls-3{fill:#1d1d1b;}</style></defs><title>Split-Tongue-Favicon-4</title><rect width="499" height="499"/><path class="cls-1" d="M426.9,470.2l-4.8-.7C424.1,470.3,425.8,470.6,426.9,470.2Z"/><path d="M426.9,465.2l-4.8-.7a5.5,5.5,0,0,0-3.6,1.5,5.1,5.1,0,0,0-1.3,2.9c-.4,2.5,1.2,4.6,3.6,5.5s5.1,1.5,7.4.6a5,5,0,0,0,3.5-6.2c-.7-2.3-3.5-4.5-6.1-3.5s1,.1.2.1h-.5q1.2.2.6,0l-2.5-.7-1.3,9.8,4.8.7a5.1,5.1,0,0,0,3.5-1.5,4.9,4.9,0,0,0,1.5-3.5,5.3,5.3,0,0,0-1.5-3.6A5.5,5.5,0,0,0,426.9,465.2Z"/><path class="cls-1" d="M299.9,357.2c-4.7-7.7-9.2-16.1-9.6-25.2-.7,21.4-13.6,40.3-26.7,57.2a691.7,691.7,0,0,1-71.5,78.6c-9.6,9.1-23.2,18.6-36.5,19.9a42.5,42.5,0,0,0,8.7-1,249.8,249.8,0,0,0,31.2-12.9c11.7-5.7,22.7-14.1,33.9-23.5,22.7-19,46.7-37.8,62.7-62.7a246.5,246.5,0,0,0,27.8,31.7c12.4,11.9,27.3,20.7,42.8,28.1,17.8,8.6,36.1,16.5,55.3,21.6l4.1.5c-4.9-1.8-11.5-6.1-14-7.4C360.9,437.5,327.4,402.8,299.9,357.2Z"/><path d="M304.2,354.7c-4.2-7-8.3-14.3-8.9-22.7-.5-6.3-9.7-6.4-10,0-.8,16.9-9.3,31.7-18.8,45.1a508.8,508.8,0,0,1-32.7,40.3q-17.2,19.7-35.9,38c-11.8,11.5-25.1,25.2-42.3,27.3-6.2.8-6.6,10.3,0,10,13.9-.6,27.3-7.4,39.7-13.3s25.9-15.8,37.6-25.6c23.1-19.2,46.9-38.2,63.5-63.7h-8.6c16.6,22.7,36.1,42.2,60.9,55.8a363.3,363.3,0,0,0,39,18.1c11,4.5,22.5,9,34.4,10.5,6,.8,6-7.9,1.3-9.8s-11.4-6.2-17.1-9.2-11.8-6.8-17.5-10.5a250.3,250.3,0,0,1-32.7-25.3c-20.5-19-37.5-41.2-51.9-65-3.4-5.5-12-.5-8.7,5.1,15.2,24.9,33.1,48.3,54.7,68a262.5,262.5,0,0,0,33.5,25.9c6.2,4,12.5,7.7,19,11.2s11.7,6.9,18.1,9.5l1.3-9.9c-10.5-1.3-21.1-5.9-30.9-9.8a345.2,345.2,0,0,1-37.5-17.5c-23.2-12.7-41.7-30.9-57.3-52.1-2.2-3.1-6.4-3.4-8.6,0-15.5,23.7-37.8,41.5-59.3,59.5C217.3,453.9,206,463,193,469.5c-11.4,5.7-24.5,12.6-37.4,13.2v10c18.3-2.3,32.5-14,45.4-26.4s27.2-27.3,39.9-41.8a546.8,546.8,0,0,0,35.2-43.7c10.2-14.6,18.3-30.7,19.2-48.8h-10c.8,10.2,5.1,19.1,10.2,27.8C298.8,365.3,307.5,360.2,304.2,354.7Z"/><path class="cls-1" d="M149.9,487.7a27.2,27.2,0,0,0,5.7,0C152.5,487.8,149.9,487.7,149.9,487.7Z"/><path d="M149.9,492.7a27.2,27.2,0,0,0,5.7,0c2.6-.2,5.1-2.1,5-5a5.1,5.1,0,0,0-5-5,54.2,54.2,0,0,1-5.7,0c-2.7,0-5.2,2.4-5,5a5,5,0,0,0,5,5,54.2,54.2,0,0,0,5.7,0v-10a27.2,27.2,0,0,1-5.7,0,5,5,0,0,0-5,5A5.1,5.1,0,0,0,149.9,492.7Z"/><path class="cls-1" d="M481.4,216.2C466,160.4,435,108.7,396.7,65.4c-9.7-10.9-17.9-19.6-30.5-29.8-22.7-18.5-35.6-24.3-64.9-23.4-15.8.5-43.1,8.7-53,30.7l-.3.7C235.8,19.8,205.8,9,179.3,13.1A86.9,86.9,0,0,0,135.8,33c-7.7,6.5-14.1,14.3-20.4,22-43,52.3-87.2,108.2-97.5,175.1l.3.7c22.9-2.6,47.4-5,67.9,5.7,22.3,11.6,34.7,36.2,55,51.1,13.5,9.8,29.9,14.9,46.2,18,47.4,8.9,96.2,2,143.9-4.9,10.8-1.6,21.7-3.2,31.8-7.3,18.9-7.8,33.2-23.7,45.1-40.3,6.9-9.8,13.4-20.1,22.7-27.5a52.6,52.6,0,0,1,51.3-7.3Z"/><path class="cls-1" d="M482.6,215.9c-14.4-51.4-41.2-98.7-75.1-139.7C391.1,56.3,373.1,37,351.3,22.9,334.7,12.3,314.9,9,295.5,11.5s-41.1,12.6-48.7,31.8l2.3-.3c-9.7-18.3-28.9-28.8-48.9-31.4-22.9-2.9-46.4,4.9-64,19.4-10.4,8.5-18.6,19.3-27,29.6S93.4,80.1,85.7,90c-16.1,20.9-31.3,42.7-43.6,66.1a264.1,264.1,0,0,0-16.6,38.2,204,204,0,0,0-5.7,19.9c-.9,3.5-1.6,7-2.3,10.6-.3,2-1.3,4.4-.5,6.4.2.4.6,1,1.2.9,17.2-2,34.9-4,52-.1s29,14.1,40.2,26.3,18.9,22.3,30.8,30.8c13.8,9.8,30.3,14.8,46.8,17.9,37.2,6.8,75.3,4,112.5-.8,18-2.3,36.8-3.8,54.2-8.7,15-4.2,27.7-12.9,38.4-24,12.9-13.5,21.3-30.9,34.8-43.7a51.2,51.2,0,0,1,53.8-10.2,1.3,1.3,0,0,0,1.6-1.6l-.7-2.1c-.5-1.5-2.9-.9-2.4.6l.7,2.2,1.5-1.6a54.5,54.5,0,0,0-36.3-1c-12.2,4-21.5,12.3-29.2,22.4-8.8,11.6-16.4,23.9-26.7,34.4s-23.1,18.8-37.9,22.7-33.3,5.7-49.8,7.8-32.7,3.9-49.1,4.7c-31.8,1.5-66.5.4-96-12.7-13.1-5.7-23.5-14.8-33-25.2s-16.7-19.6-26.8-27.6c-22.3-17.7-50.1-16.1-76.9-13.3-1.4.2-.9,1.2-1.4.1s.3-1.8.4-2.3a42.1,42.1,0,0,1,.9-4.9c.7-3.6,1.5-7.1,2.4-10.6a186.3,186.3,0,0,1,6.3-20.5,268.1,268.1,0,0,1,18.2-39.7C61.6,125.9,79,102.3,97.1,79.5s36.2-49.7,64.8-60.6c24.1-9.2,53.7-7,73.6,10.6a52.4,52.4,0,0,1,11.4,14.7c.6,1.1,1.9.7,2.3-.3,7.1-17.8,27.8-27.3,45.6-29.8,19.4-2.8,39.3.6,55.8,11.4,20.4,13.3,37.4,31.3,53,49.8a421.9,421.9,0,0,1,43.8,63,353,353,0,0,1,32.8,78.2A1.2,1.2,0,0,0,482.6,215.9Z"/><path class="cls-1" d="M422.2,186.3c-24.2-2.5-37,3.6-54.9,12.7-10.1,5.1-20.8,9.2-31.9,11.1-7.1,1.2-14.3,1.1-21.5,1-23.5-.3-47.1-.8-70.6-1.6s-46.8-1.7-69.5-6.7c-15-3.3-29.6-8.3-44.7-11.3a170.9,170.9,0,0,0-71.2,1l-.6-2.6c44.3-62.8,121-101.5,197.9-99.6a174.4,174.4,0,0,1,31.4,3.4,164.6,164.6,0,0,1,42.3,15.2c4.2,2.2,8.3,4.5,12.4,6.8l9.7,5.5c17.7,10,35.5,20.1,50.1,34.2,8.4,8.1,20.6,20.1,27.7,29.3Z"/><path d="M422.2,181.3a87.1,87.1,0,0,0-30.5,2c-9,2.4-17.4,6.5-25.6,10.7-10.8,5.4-22.4,10.2-34.6,11.6s-26.2.4-39.1.2c-25.5-.5-50.9-.8-76.3-2.5a271.3,271.3,0,0,1-39.1-4.9c-12.5-2.7-24.8-6.6-37.2-9.6a179.9,179.9,0,0,0-83.2-1.1l6.1,3.5-.6-2.6-.5,3.8c30.4-42.7,75.9-73.9,126.2-88.3a222.2,222.2,0,0,1,79.5-8.2A153.6,153.6,0,0,1,312,106.6c14.3,5.8,27.6,13.9,41,21.5s28.5,16.4,40.8,27.3,22.2,21,31.4,32.9l2.2-8.4-6.5,1.6c-6.3,1.5-3.6,11.2,2.6,9.6l6.6-1.6c4-.9,4.4-5.5,2.2-8.3-18.4-23.6-41.6-42.9-67.4-57.8-28.3-16.5-56.3-32.3-89.3-36.6-56.9-7.3-116.5,9.7-163.3,42.1a240.5,240.5,0,0,0-35.8,30.2,211.5,211.5,0,0,0-15.3,17.4c-2.5,3.1-5.1,6.3-7.3,9.6s-1.5,4.7-.8,7.7a5.2,5.2,0,0,0,6.2,3.5,168.1,168.1,0,0,1,75,.4c12.2,2.9,24.1,6.7,36.3,9.5a283.3,283.3,0,0,0,37.7,5.6c25.3,2.1,50.8,2.3,76.2,2.8s49.9,2.7,73.6-7c10.3-4.2,19.9-10.1,30.5-13.9s22.1-4.5,33.6-3.4C428.6,191.9,428.5,181.9,422.2,181.3Z"/><path d="M422.2,186.3c-24.2-2.5-37,3.6-54.9,12.7-10.1,5.1-20.8,9.2-31.9,11.1-7.1,1.2-14.3,1.1-21.5,1-23.5-.3-47.1-.8-70.6-1.6s-46.8-1.7-69.5-6.7c-15-3.3-29.6-8.3-44.7-11.3a170.9,170.9,0,0,0-71.2,1l-.6-2.6C101.6,127.1,181.1,134.1,258,136a203.7,203.7,0,0,1,33,4c14.7,3,32.6,1.1,46,8,4.2,2.2,20.9,2.7,25,5s17.8,2.2,21,4c17.7,10,3.5-15.7,18.1-1.6,8.4,8.1,20.6,20.1,27.7,29.3Z"/><path d="M422.2,181.3a87.1,87.1,0,0,0-30.5,2c-9,2.4-17.4,6.5-25.6,10.7-10.8,5.4-22.4,10.2-34.6,11.6s-26.2.4-39.1.2c-25.5-.5-50.9-.8-76.3-2.5a271.3,271.3,0,0,1-39.1-4.9c-12.5-2.7-24.8-6.6-37.2-9.6a179.9,179.9,0,0,0-83.2-1.1l6.1,3.5-.6-2.6-.5,3.8c16.8-23.5,41.2-38.4,69-45.5s58.8-7.5,88.2-6.9c15.6.3,31.4.2,46.9,1.4,9.2.7,18,2.5,27.1,4s16.7,1.5,25,2.5a61.9,61.9,0,0,1,12.1,2.5c2.8.9,5.3,2.4,8.1,3.2,5.5,1.5,11.5,1.7,17.1,2.7s8.5,2.5,13.2,3.2,10.3,1.2,15.2,3.3,9,2.5,12.2-1.2c.9-1,3.7-6.6,2.8-8.1,1.1,1.9-4.2,1.9-4.3,2.5s-.1-.5.4.3,2.2,1.9,3,2.7c3.1,2.9,6.1,5.9,9.1,8.9a210.2,210.2,0,0,1,18.5,20.4l2.2-8.4-6.5,1.6c-6.3,1.5-3.6,11.2,2.6,9.6l6.6-1.6c4-.9,4.4-5.5,2.2-8.3A210.8,210.8,0,0,0,414.9,162c-4.7-4.8-9.7-11-15.6-14.5-3.4-2-7.7-1.9-9.8,1.8a12.7,12.7,0,0,0-1.1,3.8c-.2,1.1-1,3.4.2,1.6s.9.2.7-.4l-3.2-1.3a24.7,24.7,0,0,0-7.6-2.2c-5.4-.8-11-1.2-16-3s-11.7-2.1-17.5-3-12.1-4.3-18.6-5.6c-8.8-1.8-17.8-2-26.7-2.9s-18.5-3.3-27.8-4.3c-16.8-1.9-34-1.6-50.9-2-31.2-.6-63.3-.5-93.7,7.4-15.9,4.2-31.4,10.7-44.9,20.2a114.9,114.9,0,0,0-18.5,16.3,110.2,110.2,0,0,0-8.7,10.5c-2.6,3.4-3.1,5.3-2.1,9.4a5.2,5.2,0,0,0,6.2,3.5,168.1,168.1,0,0,1,75,.4c12.2,2.9,24.1,6.7,36.3,9.5a283.3,283.3,0,0,0,37.7,5.6c25.3,2.1,50.8,2.3,76.2,2.8s49.9,2.7,73.6-7c10.3-4.2,19.9-10.1,30.5-13.9s22.1-4.5,33.6-3.4C428.6,191.9,428.5,181.9,422.2,181.3Z"/><path class="cls-1" d="M241.3,147.9c-1.6,1-21.9,1.8-26.4,1.9s-21.2-1.8-25.9-4.2c-1.8-.9-4-1.5-5.1-3.2a33.6,33.6,0,0,1,0-4.5c.2-15.4,2.2-28.9,10.9-41.6a31.2,31.2,0,0,1,5.1-5.8c4.7-4,9.4-7.8,15.5-8.3,8-.7,16.3,3.2,18.1,5.7a20.7,20.7,0,0,1,3,5.7c5.9,17.5,5.9,41.2,5.7,47.4C242.2,142.6,242.8,147,241.3,147.9Z"/><path d="M239.4,144.7c.9-.4-.4,0-.7,0l-2.7.3-8.5.5c-4.4.3-8.9.6-13.4.5a97.2,97.2,0,0,1-17.8-2.1,35,35,0,0,1-6.5-2l-2.2-1a9.4,9.4,0,0,1,0-2.9c.4-15.9,2.7-34.3,15.5-45.3,6.9-5.9,13.8-8.6,22.7-5.2,7.3,2.7,8.4,10.6,9.8,17.5a153.1,153.1,0,0,1,2.8,25.3c.1,2.7.1,5.4.1,8.1s.5,6.5.2,6.8c-3.2,3.7,2.1,9,5.3,5.4s2.1-12.3,2-17.4a193.3,193.3,0,0,0-2.4-26.3c-1.3-7.5-2.8-18.4-9.3-23.4s-17.7-6.7-25.6-3.4c-18.1,7.4-26.1,28.1-28,46.2-.6,5.8-3,16.6,2.6,20.6s13.5,4.8,20.1,5.7a119.4,119.4,0,0,0,20.7.6c5.9-.3,13.6.4,19.1-2.1S243.8,142.7,239.4,144.7Z"/><path class="cls-1" d="M294.8,148a237.5,237.5,0,0,0,1-43.8,25.4,25.4,0,0,0-1.9-9.4c-2.1-4.7-6.7-7.9-11.5-10s-10.8-3.5-16.1-1.9-8.9,5.1-12,9.1c-4.9,6.3-8.7,13.6-10,21.5-1,6-1.3,23-1.5,29.3-.1,4.7,1.9,6,1.9,6,4.4,1.7,16.1,3.1,23,3.3s19,.3,26.4-2Z"/><path d="M298.5,148a234.4,234.4,0,0,0,1.6-32.4c-.2-8.6.4-19-5.2-26.2s-12.6-9.7-20-10.7-16.1,2.5-21.8,8.9-10.3,14.6-12.1,23.2c-1.3,6.5-1.4,13.3-1.6,19.9s-1.8,13.7,1.1,18.8,10.1,4.6,14.7,5.3a143.5,143.5,0,0,0,24.5,1,71,71,0,0,0,13-1.5c3.6-.8,4.7-2,5.7-5.3s-5.8-6.6-7.2-2l-.7,2.1,2.6-2.6c-13.3,3.7-30.1,2.7-43.5-.2-1-.3-3.3-1.5-2.6-.4-.7-1-.4-2.7-.4-3.8,0-2.9.1-5.9.2-8.8.2-6.1.2-12.4,1.1-18.6A42.7,42.7,0,0,1,260,91.2c7.3-7.2,17.5-6.2,25.5-.4s7,17.7,7.1,26.7A221.8,221.8,0,0,1,291,148C290.5,152.7,298,152.7,298.5,148Z"/><path class="cls-1" d="M344.5,158.4c-.1.4-.9.6-1.3.6-6.2.5-11.3,1.1-18.9.4-10.3-.9-15.7-2.5-25.1-6.8l-5.1-2.5c1.1-10.9,2.8-22.1,7.9-31.7s14.3-17.7,25.1-18.8a18.7,18.7,0,0,1,10.2,1.7,18,18,0,0,1,7,7.7c3.4,7.1,3.1,15.4,2.7,23.3s-1.5,15.5-2,24.4Z"/><path d="M341.8,155.8c-.1,0-4.4-.1-5.3,0s-4.6.2-6.9.1a77.8,77.8,0,0,1-15.2-1.7c-6.5-1.6-12.4-4.4-18.4-7.4l1.9,3.3c1.1-10.6,2.6-21.8,8-31.1s13.1-15.6,23-15.7c13.3-.3,14.9,14.6,14.6,24.8-.2,5.2-.6,10.4-1.1,15.6s-.2,9.5-1.5,13.7,5.8,6.6,7.2,2,1.4-11.8,1.9-17.4a131.7,131.7,0,0,0,.9-20.8c-.7-12.1-6.7-24.7-20.3-25.4-11.6-.6-22.1,6.6-28.7,15.6-8.1,11.2-10.2,25.3-11.5,38.7a3.7,3.7,0,0,0,1.8,3.2c7.7,3.8,15.3,7.4,23.8,8.8a86,86,0,0,0,17.5,1.3c4.3-.1,10.2.5,13.6-2.3S345.5,152.7,341.8,155.8Z"/><path class="cls-1" d="M346.4,157.9c-.1,1.4,1.8,1.9,3,2.5,12.1,6.1,25.9,8.7,39.5,8.4,2.7-.1,5.3.2,6.7-2.2l1.1-4.7c1.1-7.8,1-12-.8-18.4-3-11-16-17.5-27.3-15.8a19.3,19.3,0,0,0-10.3,4.5c-3.3,3-5.2,7.1-7.1,11.1l-5.9,13Z"/><path d="M342.8,158.9c1.5,4.9,8.5,6.7,12.9,8.3a88.8,88.8,0,0,0,21.7,4.9c5.2.5,13.4,1.9,18.3-.7,3.3-1.7,3.9-5.1,4.6-8.4,2.1-11,.9-24-8-31.8s-20.3-9.7-30.3-5.5c-7.5,3.1-11.1,9.5-14.4,16.5-2.3,5.1-8.1,12.3-4.5,17.6s9.3.2,6.5-3.8l-1.1-1.6v3.8c4.9-10.7,8.7-26.3,22.7-27,10.1-.5,19.5,5.7,21.7,15.6a35.9,35.9,0,0,1,.1,14.6c-.2.7-.4,3.6-1,4s-6.1-.3-6.7-.4a80.4,80.4,0,0,1-18.3-2.2,91.2,91.2,0,0,1-9.3-2.8c-1.1-.4-7.5-2.5-7.7-3.1C348.6,152.3,341.3,154.3,342.8,158.9Z"/><path class="cls-1" d="M397,164.1c.4-7.8,1.8-12,5.7-18.7,1.9-3.3,4.3-6.5,7.8-7.9s9.6-.2,13,3a20.3,20.3,0,0,1,5.6,12.6c.6,4.6.1,9.3-.4,14l-1.6,1.9c-9.8,3.1-27-.2-30.1-2.4Z"/><path d="M400.7,164.1c.5-7.2,4.3-23.7,13.9-23.6,12.7.1,11.2,18.4,10.3,26.6l1.1-2.7c-2.3,2.8-9.2,2.2-13.8,1.9s-9.7-.7-13.3-2.9l1.8,3.2v-2.5c0-4.9-7.5-4.9-7.5,0s1.6,6,5.8,7.4a56.8,56.8,0,0,0,15.3,2.4c4.3.2,11.9.7,15.5-2.3s3.5-11.1,3.3-15.9c-.5-11.4-8.6-25.7-22.2-22.3s-16.9,19.9-17.7,30.7C392.9,168.9,400.4,168.9,400.7,164.1Z"/><path class="cls-1" d="M183.4,140.7a99.7,99.7,0,0,0-2.4-20.4,26.5,26.5,0,0,0-3.7-9.8c-4.7-7.1-14.8-9.5-23-6.7s-14.2,9.8-17.5,17.8-4.2,15.6-4.4,24.2a14.9,14.9,0,0,0,.2,3.2c.1,1.3,1.9,1.9,4.4,2.1a142.3,142.3,0,0,0,15.2-.8l11.3-1.7c6.5-.8,13.9-1,18.4-5.8A12.4,12.4,0,0,0,183.4,140.7Z"/><path d="M187.1,140.7c-.2-12.9-1-31.7-13.8-38.8-10.8-6-23.9-2.5-32.2,6.2s-12.6,24.6-12.5,37.9c.1,5.8,2.6,8.4,8.4,8.8a79.6,79.6,0,0,0,14.7-.7c6.4-.7,12.8-1.7,19.2-2.6s12.4-3.2,15.7-8.9c2.4-4.2-4.1-8-6.5-3.8s-10,5.3-15.2,5.9-9.7,1.6-14.6,2.1-9.3,1.5-12.9.5c-1.6-.4-.9.6-1.3-1.3s.1-3.3.2-4.8a58.4,58.4,0,0,1,1.6-11c2.8-11.5,11.1-24.6,24.5-23.8,16.4,1,17,21.8,17.2,34.3C179.7,145.5,187.2,145.5,187.1,140.7Z"/><path class="cls-1" d="M131.3,146.7c.9-5.5-3.7-10.6-6.3-15.5a19.4,19.4,0,0,0-4.4-5.8,11.1,11.1,0,0,0-4.6-2.3c-7.9-2.3-16.7,2.3-21.2,9.2s-5.6,14.7-5,22.9h0a21.1,21.1,0,0,0,6.1,1.6,42.8,42.8,0,0,0,11.3-.8,121.7,121.7,0,0,0,22.4-7A6,6,0,0,0,131.3,146.7Z"/><path d="M135.1,146.7c.5-7.4-4.9-15.4-9.2-21.1s-11.2-7.7-18-6.5c-16.8,3.2-22.7,21-21.9,36.1a4,4,0,0,0,2.8,3.6c8,3.1,16.5,1.6,24.6-.4a118.7,118.7,0,0,0,13.2-4.1c3.3-1.3,6.3-2.3,8-5.7s-4.4-8.1-6.5-3.8c-1.3,2.6-6.7,3.4-9.3,4.3s-5.9,1.7-8.9,2.4c-6.4,1.5-12.8,2.5-19.1.1l2.7,3.6c-.6-10.8,1.9-24.1,13.6-28.1,5.3-1.8,10.5-.6,13.5,4.1s7.3,10.1,7,15.5S134.8,151.5,135.1,146.7Z"/><path class="cls-2" d="M481.4,216.2C466,160.4,435,108.7,396.7,65.4c-9.7-10.9-17.9-19.6-30.5-29.8-22.7-18.5-35.6-24.3-64.9-23.4-15.8.5-43.1,8.7-53,30.7l-.3.7C235.8,19.8,205.8,9,179.3,13.1A86.9,86.9,0,0,0,135.8,33c-7.7,6.5-14.1,14.3-20.4,22-43,52.3-87.2,108.2-97.5,175.1l.3.7c22.9-2.6,47.4-5,67.9,5.7,22.3,11.6,34.7,36.2,55,51.1,13.5,9.8,29.9,14.9,46.2,18,47.4,8.9,96.2,2,143.9-4.9,10.8-1.6,21.7-3.2,31.8-7.3,18.9-7.8,33.2-23.7,45.1-40.3,6.9-9.8,13.4-20.1,22.7-27.5a52.6,52.6,0,0,1,51.3-7.3Zm-59.2-29.9c-24.2-2.5-37,3.6-54.9,12.7-10.1,5.1-20.8,9.2-31.9,11.1-7.1,1.2-14.3,1.1-21.5,1-23.5-.3-47.1-.8-70.6-1.6s-46.8-1.7-69.5-6.7c-15-3.3-29.6-8.3-44.7-11.3a170.9,170.9,0,0,0-71.2,1l-.6-2.6c44.3-62.8,121-101.5,197.9-99.6a174.4,174.4,0,0,1,31.4,3.4,164.6,164.6,0,0,1,42.3,15.2c4.2,2.2,8.3,4.5,12.4,6.8l9.7,5.5c17.7,10,35.5,20.1,50.1,34.2,8.4,8.1,20.6,20.1,27.7,29.3Z"/><path d="M486.2,214.9c-14.5-52.1-41.7-99.8-76-141.4-16.6-20.1-35-39.6-57-53.8-17.1-11-37.6-14.5-57.7-12s-44,13.7-52.3,34.6l9.1-1.2C242,21.7,221.5,10.5,200.2,7.9c-23.9-3-48.3,5.3-66.7,20.5-10.3,8.5-18.6,19.3-27,29.6s-16.2,19.9-24,30.1C66.4,109,51.2,130.8,38.9,154.2a265.6,265.6,0,0,0-17,39.1,204.7,204.7,0,0,0-5.8,19.9c-.8,3.5-1.5,7-2.2,10.6s-1.5,5.8-.5,8.4,2.5,3.9,4.8,3.6c16.8-1.9,34.3-4,51-.1s27.7,13.5,38.6,25.3,19.3,22.7,31.5,31.4c14,9.9,30.9,15.1,47.7,18.2,37.5,6.9,75.9,4.2,113.5-.7,18.3-2.3,37.4-3.8,55.2-8.8,15.6-4.3,28.9-13.4,40-25a194.2,194.2,0,0,0,17.2-21.2c5.5-7.8,10.7-15.9,17.6-22.4,13.5-12.8,33.2-16,50.3-9.3,3.5,1.3,7.2-2.8,6.1-6.2l-.7-2.1c-2-6.1-11.6-3.5-9.6,2.6l.7,2.2,6.1-6.2a57.7,57.7,0,0,0-44.5,1.4c-15.4,6.9-24.7,20.9-34.2,34.2s-20.2,26.4-34.2,34.9c-15.7,9.5-34.4,11-52.1,13.5-38.3,5.4-77.3,10.1-115.8,5.4-17.8-2.1-36.1-6-51.7-15-13.7-7.9-23.6-20.2-34-31.7S92.3,231.6,75,226.8s-38-3.1-56.8-1l4.8,3.7c-.2-.7-.5,1.9.3-1.4l.6-3.3c.5-3,1.2-6,1.9-8.9,1.4-5.9,3-11.8,4.9-17.6a254,254,0,0,1,13.4-32.4c10.6-21.4,23.7-41.4,37.8-60.6s29.2-38.2,45-56.2,36.4-30.9,60.7-31.8c22.1-.8,45.4,8.6,56.1,28.8,2.2,4.2,7.6,2.5,9.1-1.2,6.6-16.4,26.7-25,43-27.2,18.5-2.5,37.2.8,52.9,11,20.1,13.1,36.9,31,52.2,49.3a410.7,410.7,0,0,1,43.3,62.1,352.3,352.3,0,0,1,32.4,77.4C478.3,223.7,488,221.1,486.2,214.9Z"/><path d="M422.2,181.3a87.1,87.1,0,0,0-30.5,2c-9,2.4-17.4,6.5-25.6,10.7-10.8,5.4-22.4,10.2-34.6,11.6s-26.2.4-39.1.2c-25.5-.5-50.9-.8-76.3-2.5a271.3,271.3,0,0,1-39.1-4.9c-12.5-2.7-24.8-6.6-37.2-9.6a179.9,179.9,0,0,0-83.2-1.1l6.1,3.5-.6-2.6-.5,3.8c30.4-42.7,75.9-73.9,126.2-88.3a222.2,222.2,0,0,1,79.5-8.2A153.6,153.6,0,0,1,312,106.6c14.3,5.8,27.6,13.9,41,21.5s28.5,16.4,40.8,27.3,22.2,21,31.4,32.9l2.2-8.4-6.5,1.6c-6.3,1.5-3.6,11.2,2.6,9.6l6.6-1.6c4-.9,4.4-5.5,2.2-8.3-18.4-23.6-41.6-42.9-67.4-57.8-28.3-16.5-56.3-32.3-89.3-36.6-56.9-7.3-116.5,9.7-163.3,42.1a240.5,240.5,0,0,0-35.8,30.2,211.5,211.5,0,0,0-15.3,17.4c-2.5,3.1-5.1,6.3-7.3,9.6s-1.5,4.7-.8,7.7a5.2,5.2,0,0,0,6.2,3.5,168.1,168.1,0,0,1,75,.4c12.2,2.9,24.1,6.7,36.3,9.5a283.3,283.3,0,0,0,37.7,5.6c25.3,2.1,50.8,2.3,76.2,2.8s49.9,2.7,73.6-7c10.3-4.2,19.9-10.1,30.5-13.9s22.1-4.5,33.6-3.4C428.6,191.9,428.5,181.9,422.2,181.3Z"/><path class="cls-1" d="M287.5,268.3c-3.6-13.5-4.9-27.6-8-41.2s-8.4-27.3-18.3-37.2c-17.1-16.8-44-17.5-67.6-13.5-19.3,3.3-33.4,7.1-39.1,30-5.4,21.3,11.2,70.2,30,99.5,9.5,14.8,21.3,28.7,26,45.7s1.7,33.3-4.4,48.7-15.6,29.3-25.2,42.8c-6.5,9.2-12.5,17.1-21,24.6-2.9,2.5-8.1,6.2-9.8,9.6s-3.3,8.2-.2,10.4c15.1,1.4,31.2-9.5,42.2-19.9a691.7,691.7,0,0,0,71.5-78.6c13.1-16.9,26-35.8,26.7-57.2.4,9.1,4.9,17.5,9.6,25.2,27.5,45.6,61,80.3,108.2,104.9,3.5,1.8,15.2,9.7,18.8,8.1s-5.8-11.3-9.4-16.6c-9-13.2-21-33.2-29-51.2-12.2-27.1-24.5-54.7-28-84.2s.7-56,3.1-86.7c.8-9.9.4-20.8-5.7-28.7-4.5-5.7-11.3-8.8-18-11.4-12-4.7-24.6-8.2-37.4-8.3s-26.8,4-36.5,12.3"/><path d="M292.3,267c-6.9-26.9-6.1-58.1-26.5-79.4-16.9-17.8-43.2-20-66.2-17.1-19.2,2.4-39,6.8-47.2,26.4s-2.4,39.9,3.4,58.3c7.5,23.7,18.7,45.2,32.7,65.6,7.6,11,15.2,22.3,18,35.6s.1,29.2-5.2,42.6-13.4,25.5-21.6,37.2-15.9,21.7-26.4,30.5c-4.3,3.6-8,7.4-9.6,13s-.4,11.1,4.8,12.9,13-.6,17.9-2.3a69.9,69.9,0,0,0,17.1-9c12.7-8.9,23.6-20.7,34.4-31.8s22.5-24.2,33.1-36.8c19.4-23.1,42.8-49,44.3-80.7h-10c.8,10.8,5.6,20.1,11.1,29.1S307.1,378,313,386a283,283,0,0,0,38.3,42.8,262,262,0,0,0,47.2,33.8c5.3,2.9,33.6,22.3,34.1,6.4.2-6.3-6.9-12.4-10.3-17.1-5.6-7.9-10.5-16.3-15.3-24.6a433.8,433.8,0,0,1-29-62.2c-8.4-22.2-13.7-44.9-13.9-68.7s3.8-45.8,4.7-68.8c.5-10.9-1.4-22.6-9.4-30.6s-20-11.6-30.3-14.6c-22.7-6.7-47.7-6.1-66.7,9.5-4.9,4.1,2.2,11.1,7.1,7.1,15.5-12.8,36.7-12.6,55.1-7.5,8.9,2.5,19.5,5.4,26.6,11.5s8,16.3,7.6,25.4c-1,20.9-4.3,41.6-4.6,62.6a191.2,191.2,0,0,0,8.7,61c6.1,19.7,14.5,38.8,23.4,57.4a311.4,311.4,0,0,0,27.4,47.5c1.8,2.6,3.9,5,5.8,7.5a30,30,0,0,0,2.5,3.7c.1.1.4,1.1.6,1.1l3.1-3.8h-.6c-.5-.6-3.2-1.2-4.1-1.7l-4.1-2.2-7-4a259.8,259.8,0,0,1-44.1-29.3,265.6,265.6,0,0,1-39.9-41.5c-6.1-7.8-11.7-16-17.1-24.4s-12.7-19-13.5-30.2c-.5-6.3-9.7-6.4-10,0-.8,17.5-9.8,32.7-19.9,46.5a541.9,541.9,0,0,1-34.6,42.4c-12.2,13.7-25,26.9-38.2,39.6-11.5,11-25.8,23.3-42.7,22.2l3.5,1.5c-3.5-3.5,12.6-15.3,14.5-17.2,6.3-6.2,11.6-13.4,16.8-20.6,11.1-15.5,21.9-31.6,28-49.8s7-36.8-.1-54.1-18.2-29.4-27-44.3a225,225,0,0,1-19.7-44.3c-4.2-12.8-8-26.6-7.4-40.2s6.9-23.6,18.5-28.2c13.3-5.2,29.6-6.7,43.8-6,19.1.9,36.2,8.6,45.6,25.8,10.8,19.6,10.8,43,16.2,64.3,1.6,6.3,11.3,3.6,9.7-2.6Z"/><path d="M287.8,390.1c15.1,20.6,32.8,39.3,54.9,52.4s48.1,23.1,73.6,30c6.2,1.7,8.9-8,2.7-9.7-24.3-6.5-48-15.5-69.7-28.1s-38.4-29.9-52.9-49.6c-3.8-5.2-12.4-.2-8.6,5Z"/><path class="cls-3" d="M289.1,332.1l1.7,55.5c.1,1.6,2.6,1.6,2.5,0l-1.7-55.5c-.1-1.6-2.6-1.6-2.5,0Z"/><path d="M309.5,377.4V411c0,3.2,5,3.2,5,0V377.4c0-3.2-5-3.2-5,0Z"/><path d="M298.4,361.1V398c0,3.2,5,3.2,5,0V361.1c0-3.2-5-3.2-5,0Z"/><path d="M321.1,392.9v27.9c0,3.2,5,3.2,5,0V392.9c0-3.2-5-3.2-5,0Z"/><path d="M330.5,404v24.8c0,3.2,5,3.2,5,0V404c0-3.2-5-3.2-5,0Z"/><path d="M340.2,414.8v21.1c0,3.2,5,3.2,5,0V414.8c0-3.2-5-3.2-5,0Z"/><path d="M350.7,425.1v16.7c0,3.2,5,3.2,5,0V425.1c0-3.2-5-3.2-5,0Z"/><path d="M361.7,434.4v12.9h5v-.7c0-3.2-5-3.2-5,0v.7c0,3.3,5,3.3,5,0V434.4c0-3.2-5-3.2-5,0Z"/><path d="M370.9,441.8v8.9c0,3.3,5,3.3,5,0v-8.9c0-3.2-5-3.2-5,0Z"/><path d="M381,447.9v8.6c0,3.2,5,3.3,5,0v-8.6c0-3.2-5-3.2-5,0Z"/><path d="M279.1,362.6v38.9c0,3.2,5,3.2,5,0V362.6c0-3.2-5-3.2-5,0Z"/><path d="M269.7,378.9v31.7c0,3.2,5,3.2,5,0V378.9c0-3.2-5-3.2-5,0Z"/><path d="M260,391.4v29.2c0,3.2,5,3.2,5,0V391.4c0-3.2-5-3.2-5,0Z"/><path d="M249.2,405v24.5c0,3.2,5,3.2,5,0V405c0-3.2-5-3.2-5,0Z"/><path d="M240.5,415.8V438c0,3.2,5,3.2,5,0V415.8c0-3.3-5-3.3-5,0Z"/><path d="M231.1,426.3v19.6c0,3.2,5,3.2,5,0V426.3c0-3.2-5-3.2-5,0Z"/><path d="M222.4,435.9v16.6c0,3.2,5,3.2,5,0V435.9c0-3.2-5-3.2-5,0Z"/><path d="M214.5,444.6v14.3c0,3.2,5,3.2,5,0V444.6c0-3.2-5-3.2-5,0Z"/><path d="M206.5,452.5v11.8c0,3.2,5,3.2,5,0V452.5c0-3.2-5-3.2-5,0Z"/><path d="M197.1,462.5v6.1c0,3.2,5,3.3,5,0v-6.1c0-3.2-5-3.2-5,0Z"/><path d="M287.8,332.1l1.8,55.5c.1,3.2,5.1,3.2,5,0l-1.8-55.5c-.1-3.2-5.1-3.2-5,0Z"/></svg>