<?xml version="1.0" encoding="utf-8"?>
<!-- Generator: Adobe Illustrator 22.1.0, SVG Export Plug-In . SVG Version: 6.00 Build 0)  -->
<svg version="1.1" id="Ebene_1" xmlns="http://www.w3.org/2000/svg" xmlns:xlink="http://www.w3.org/1999/xlink" x="0px" y="0px"
	 viewBox="0 0 24 24" style="enable-background:new 0 0 24 24;" xml:space="preserve">
<style type="text/css">
	.st0{display:none;}
	.st1{fill:#FFFFFF;}
</style>
<path class="st0" d="M18,12.3h-3C15.3,10.4,17.9,10.6,18,12.3z M8.3,13H6v2h2.2C10.3,15,10.1,13,8.3,13z M8.2,9H6v2h2.4
	C10.1,11,10.3,9,8.2,9z M24,0v24H0V0H24z M14,8h5V7h-5V8z M10.4,11.6c1.9-1,1.8-4.6-1.8-4.6H4v10h4.3C12.8,17,12.8,12.5,10.4,11.6z
	 M19.9,12.2c-0.3-1.8-1.5-2.9-3.6-2.9s-3.4,1.3-3.4,3.9s1.4,3.8,3.4,3.8s3.1-1.1,3.4-2h-2.1c-0.7,0.9-2.9,0.5-2.8-1.4H20
	C20,13,20,12.6,19.9,12.2z"/>
<g>
	<path class="st1" d="M10.4,11.6c1.9-1,1.8-4.5-1.8-4.6H4v10h4.3C12.8,17,12.8,12.5,10.4,11.6z M8.2,15H6v-2h2.3
		C10.1,13,10.3,15,8.2,15z M8.4,11H6V9h2.2C10.3,9,10.1,11,8.4,11z"/>
	<rect x="14" y="7" class="st1" width="5" height="1"/>
	<path class="st1" d="M19.9,12.2c-0.3-1.8-1.5-2.9-3.6-2.9s-3.4,1.3-3.4,3.9s1.4,3.8,3.4,3.8s3.1-1.1,3.4-2h-2.1
		c-0.7,0.9-2.9,0.5-2.8-1.4H20C20,13,20,12.6,19.9,12.2z M15,12.3c0.3-2,2.9-1.7,3,0H15z"/>
</g>
</svg>
