<?xml version="1.0" encoding="utf-8"?>
<!-- Generator: Adobe Illustrator 22.1.0, SVG Export Plug-In . SVG Version: 6.00 Build 0)  -->
<svg version="1.1" id="Ebene_1" xmlns="http://www.w3.org/2000/svg" xmlns:xlink="http://www.w3.org/1999/xlink" x="0px" y="0px"
	 viewBox="0 0 24 24" style="enable-background:new 0 0 24 24;" xml:space="preserve">
<style type="text/css">
	.st0{display:none;}
	.st1{fill:#FFFFFF;}
</style>
<path class="st0" d="M11.4,9.7c-1.6,0.5-3.6,0.7-5.8,0.7C6,8.5,7.3,7,9,6.1C9.9,7.3,10.7,8.5,11.4,9.7z M12.5,11.9
	c-0.1-0.3-0.3-0.6-0.4-1c-1.9,0.6-4.1,0.9-6.6,0.9V12c0,1.6,0.6,3.1,1.5,4.2C8.4,14,10.2,12.6,12.5,11.9z M16,6.8
	c-1.1-0.9-2.5-1.4-4-1.4c-0.6,0-1.1,0.1-1.6,0.2C11.3,6.8,12,8,12.7,9.2C14.1,8.6,15.2,7.8,16,6.8z M24,0v24H0V0H24z M20,12
	c0-4.4-3.6-8-8-8s-8,3.6-8,8s3.6,8,8,8S20,16.4,20,12z M7.9,17.2c1.8,1.4,4.2,1.8,6.4,1c-0.3-1.7-0.7-3.4-1.4-5
	C10.9,13.8,9.3,15.1,7.9,17.2z M13.3,10.5c0.2,0.4,0.3,0.7,0.5,1.1c1.4-0.2,3-0.2,4.7,0c-0.1-1.5-0.6-2.8-1.5-3.9
	C16.1,8.9,14.9,9.8,13.3,10.5z M14.4,12.9c0.6,1.5,1,3,1.3,4.6c1.5-1,2.6-2.6,2.9-4.5C17,12.8,15.6,12.7,14.4,12.9z"/>
<path class="st1" d="M12,4c-4.4,0-8,3.6-8,8s3.6,8,8,8s8-3.6,8-8S16.4,4,12,4z M17,7.7c0.9,1.1,1.4,2.4,1.5,3.9
	c-1.7-0.2-3.3-0.2-4.7,0c-0.2-0.4-0.3-0.7-0.5-1.1C14.9,9.8,16.1,8.9,17,7.7z M12,5.4c1.5,0,2.9,0.5,4,1.4c-0.8,1-1.9,1.8-3.3,2.4
	C12,8,11.3,6.8,10.4,5.6C10.9,5.5,11.4,5.4,12,5.4z M9,6.1c0.9,1.2,1.7,2.4,2.4,3.6c-1.6,0.5-3.6,0.7-5.8,0.7C6,8.5,7.3,7,9,6.1z
	 M5.5,12v-0.2c2.5,0,4.7-0.3,6.6-0.9c0.1,0.4,0.3,0.7,0.4,1C10.2,12.6,8.4,14,7,16.2C6.1,15.1,5.5,13.6,5.5,12z M7.9,17.2
	c1.4-2.1,3-3.4,5-4c0.7,1.6,1.1,3.3,1.4,5C12.1,19,9.7,18.6,7.9,17.2z M15.7,17.5c-0.3-1.6-0.7-3.1-1.3-4.6c1.2-0.2,2.6-0.1,4.2,0.1
	C18.3,14.9,17.2,16.5,15.7,17.5z"/>
</svg>
